<?xml version="1.0" encoding="utf-8"?>
<!-- Generator: Adobe Illustrator 25.3.1, SVG Export Plug-In . SVG Version: 6.00 Build 0)  -->
<svg version="1.1" id="Layer_1" xmlns="http://www.w3.org/2000/svg" xmlns:xlink="http://www.w3.org/1999/xlink" x="0px" y="0px"
	 width="60px" height="60px" viewBox="0 0 60 60" style="enable-background:new 0 0 60 60;" xml:space="preserve">
<style type="text/css">
	.st0{fill:#9FE9A7;}
	.st1{fill:#FFFFFF;}
</style>
<g>
	<rect class="st0" width="60" height="60"/>
</g>
<g>
	<g>
		<path class="st1" d="M43.7,48.5H16.3c-2.6,0-4.8-2.2-4.8-4.8V16.3c0-2.6,2.2-4.8,4.8-4.8h27.4c2.6,0,4.8,2.2,4.8,4.8v27.4
			C48.5,46.3,46.3,48.5,43.7,48.5z M16.3,12.5c-2.1,0-3.8,1.7-3.8,3.8v27.4c0,2.1,1.7,3.8,3.8,3.8h27.4c2.1,0,3.8-1.7,3.8-3.8V16.3
			c0-2.1-1.7-3.8-3.8-3.8H16.3z"/>
	</g>
	<rect x="29.2" y="17.7" class="st1" width="1.9" height="24"/>
	<path class="st1" d="M22.4,22.1c1.4,0,2.3,1.1,2.6,1.7l1.7,5.5c0.3,1.2-1.2,1.7-1.5,0.5l-1.5-5.1h-0.9l2.5,9h-2.4v7
		c0,1.2-1.8,1.2-1.8,0v-7h-0.9v7c0,1.2-1.8,1.2-1.8,0v-7h-2.4l2.5-9h-0.8l-1.5,5.1c-0.4,1.1-1.9,0.7-1.5-0.5l1.7-5.5
		c0.2-0.6,1-1.7,2.3-1.7H22.4z"/>
	<path class="st1" d="M20.6,21.6c1.1,0,2-0.9,2-1.9c0-1.1-0.9-2-2-2s-1.9,0.9-1.9,2C18.7,20.8,19.5,21.6,20.6,21.6z"/>
	<path class="st1" d="M39.6,21.6c1.1,0,2-0.9,2-1.9c0-1.1-0.9-1.9-2-1.9c-1.1,0-1.9,0.9-1.9,1.9C37.6,20.7,38.5,21.6,39.6,21.6z"/>
	<path class="st1" d="M36.9,40.5c0,0.6,0.5,1.1,1.1,1.1c0.6,0,1.1-0.5,1.1-1.1v-9.2H40v9.2c0,0.6,0.5,1.1,1.1,1.1s1.1-0.5,1.1-1.1
		l0-15.8h0.9v5.8c0,1.2,1.5,1.2,1.5,0v-6c0-1.3-1-2.6-2.5-2.6L37,22c-1.4,0-2.5,1.1-2.5,2.5v6c0,1.2,1.5,1.2,1.5,0v-5.8h0.9
		L36.9,40.5z"/>
</g>
</svg>
