<?xml version="1.0" encoding="utf-8"?>
<!-- Generator: Adobe Illustrator 25.3.1, SVG Export Plug-In . SVG Version: 6.00 Build 0)  -->
<svg version="1.1" id="Layer_1" xmlns="http://www.w3.org/2000/svg" xmlns:xlink="http://www.w3.org/1999/xlink" x="0px" y="0px"
	 width="60px" height="60px" viewBox="0 0 60 60" style="enable-background:new 0 0 60 60;" xml:space="preserve">
<style type="text/css">
	.st0{fill:#FFFFFF;}
	.st1{fill:#69DD76;}
</style>
<g>
	<rect class="st0" width="60" height="60"/>
</g>
<g>
	<g>
		<path class="st1" d="M43.7,48.6H16.3c-2.7,0-4.8-2.2-4.8-4.9V16.2c0-2.6,2.1-4.8,4.8-4.8h27.5c1.3,0,2.5,0.5,3.4,1.5
			c0.9,0.9,1.3,2.1,1.3,3.4l0,27.5C48.5,46.4,46.3,48.6,43.7,48.6z M16.3,12.4c-2.1,0-3.8,1.7-3.8,3.8v27.4c0,2.2,1.7,3.9,3.8,3.9
			h27.4c2.1,0,3.8-1.7,3.8-3.8V16.2c0-1-0.3-1.9-1-2.6c-0.7-0.7-1.7-1.1-2.7-1.1H16.3z"/>
	</g>
	<path class="st1" d="M23.7,39.6l6.3-12.2l6.4,12.2H23.7z M42,39.6L30.2,16.8l-12,22.8h-2.5v1.7h28.7v-1.7H42z"/>
</g>
</svg>
