<?xml version="1.0" encoding="utf-8"?>
<!-- Generator: Adobe Illustrator 25.3.1, SVG Export Plug-In . SVG Version: 6.00 Build 0)  -->
<svg version="1.1" id="Layer_1" xmlns="http://www.w3.org/2000/svg" xmlns:xlink="http://www.w3.org/1999/xlink" x="0px" y="0px"
	 width="60px" height="60px" viewBox="0 0 60 60" style="enable-background:new 0 0 60 60;" xml:space="preserve">
<style type="text/css">
	.st0{fill:#FFFFFF;}
	.st1{fill:#69DD76;}
</style>
<g>
	<rect class="st0" width="60" height="60"/>
</g>
<g>
	<g>
		<path class="st1" d="M43.7,48.5H16.3c-2.6,0-4.8-2.1-4.8-4.8V16.3c0-2.6,2.1-4.8,4.8-4.8h27.5c2.6,0,4.8,2.1,4.8,4.8v27.5
			C48.5,46.4,46.4,48.5,43.7,48.5z M16.3,12.5c-2.1,0-3.8,1.7-3.8,3.8v27.5c0,2.1,1.7,3.8,3.8,3.8h27.5c2.1,0,3.8-1.7,3.8-3.8V16.3
			c0-2.1-1.7-3.8-3.8-3.8H16.3z"/>
	</g>
	<path class="st1" d="M30,35.2c-0.3,0.1-0.7,0.2-1,0.2s-0.8,0-1.1-0.1L24,44.2c-0.3,0.8-1.3,1.1-2.1,0.7c-0.9-0.7-1.2-1.7-0.9-2.5
		l4.7-10.9h6.1v-1l3-1.5c0.8-0.3,1.8,0.2,2,1.1l1.5,6.1c0.2,0.9-0.3,1.7-1.1,1.9c-0.9,0.2-1.7-0.3-1.9-1.1l-0.9-3.8L30,35.2z"/>
	<path class="st1" d="M32.8,28.9c6.6-3.3,9.2-14.5,9.2-15.5h-0.9c-0.3,2.4-3.1,11.7-8.3,14.5C32.8,27.9,32.8,28.9,32.8,28.9z"/>
	<path class="st1" d="M20.5,26.4c0.3,0.6,1,0.8,1.7,0.6l3.5-1.4v4.8h6.1v-5.6l5.4-8.7c0.3-0.7,0.2-1.5-0.5-1.9
		c-0.7-0.4-1.5-0.2-1.8,0.5l-4.6,7.4h-2.8c-0.2,0-0.3,0-0.6,0.1l-4.8,1.9l-2.4-3.8c-0.5-0.7-1.2-0.8-1.9-0.5
		c-0.6,0.5-0.8,1.2-0.3,1.9L20.5,26.4z"/>
	<path class="st1" d="M28.3,21.6c1.4,0,2.4-1.1,2.4-2.4s-1.1-2.4-2.4-2.4c-1.3,0-2.4,1.1-2.4,2.4S27,21.6,28.3,21.6z"/>
	<polygon class="st1" points="31.8,46.2 31.8,35.3 30.8,35.9 30.8,46.2 	"/>
</g>
</svg>
