<?xml version="1.0" encoding="utf-8"?>
<!-- Generator: Adobe Illustrator 23.0.1, SVG Export Plug-In . SVG Version: 6.00 Build 0)  -->
<svg version="1.1" id="Layer_1" xmlns="http://www.w3.org/2000/svg" xmlns:xlink="http://www.w3.org/1999/xlink" x="0px" y="0px"
	 width="20px" height="20px" viewBox="0 0 20 20" enable-background="new 0 0 20 20" xml:space="preserve">
<g>
	<path fill="#69DD76" d="M3.7434,8.3258c0-2.5309,2.0517-4.5825,4.5825-4.5825s4.5825,2.0516,4.5825,4.5825
		c0,2.531-2.0517,4.5825-4.5825,4.5825C5.7963,12.9056,3.7464,10.8554,3.7434,8.3258z M17.7516,16.5534l-4.4325-4.4327
		c2.0076-2.6386,1.6271-6.3822-0.8705-8.5634S6.1907,1.5037,3.8461,3.8477c-2.3446,2.345-2.4717,6.1054-0.2906,8.6032
		c2.1811,2.4974,5.9243,2.8777,8.5634,0.8701l4.4325,4.4327c0.3338,0.3259,0.8665,0.3259,1.2003,0
		C18.0828,17.4222,18.0828,16.8845,17.7516,16.5534z"/>
</g>
</svg>
