<?xml version="1.0" encoding="utf-8"?>
<!-- Generator: Adobe Illustrator 25.3.1, SVG Export Plug-In . SVG Version: 6.00 Build 0)  -->
<svg version="1.1" id="Layer_1" xmlns="http://www.w3.org/2000/svg" xmlns:xlink="http://www.w3.org/1999/xlink" x="0px" y="0px"
	 width="60px" height="60px" viewBox="0 0 60 60" style="enable-background:new 0 0 60 60;" xml:space="preserve">
<style type="text/css">
	.st0{fill:#FFFFFF;}
	.st1{fill:#69DD76;}
</style>
<g>
	<rect class="st0" width="60" height="60"/>
</g>
<g>
	<g>
		<path class="st1" d="M43.7,48.5H16.3c-2.6,0-4.8-2.1-4.8-4.8V16.3c0-2.6,2.1-4.8,4.8-4.8h27.4c2.6,0,4.8,2.1,4.8,4.8v27.4
			C48.5,46.4,46.4,48.5,43.7,48.5z M16.3,12.5c-2.1,0-3.8,1.7-3.8,3.8v27.4c0,2.1,1.7,3.8,3.8,3.8h27.4c2.1,0,3.8-1.7,3.8-3.8V16.3
			c0-2.1-1.7-3.8-3.8-3.8H16.3z"/>
	</g>
	<path class="st1" d="M36.2,21.8c-0.5,0.4-1.1,0.7-1.8,0.7c-0.9,0-1.7-0.3-2.1-1c-0.5,0.7-1.4,1-2.3,1s-1.7-0.3-2.1-1
		c-0.5,0.7-1.2,1-2.1,1c-0.7,0-1.2-0.1-1.7-0.6l-0.3-2.5c0.4,0.7,1.2,1,2,1c0.9,0,1.7-0.4,2.1-1.1c0.5,0.7,1.2,1.1,2.1,1.1
		s1.7-0.4,2.1-1.1c0.5,0.7,1.2,1.1,2.1,1.1c0.9,0,1.7-0.4,2.1-1.1L36.2,21.8z"/>
	<polygon class="st1" points="36.9,42.7 40.8,17.5 38.2,17.6 34.6,40.1 25.6,40.1 22,17.6 19.4,17.5 23.4,42.7 	"/>
</g>
</svg>
