<?xml version="1.0" encoding="utf-8"?>
<!-- Generator: Adobe Illustrator 23.0.1, SVG Export Plug-In . SVG Version: 6.00 Build 0)  -->
<svg version="1.1" xmlns="http://www.w3.org/2000/svg" xmlns:xlink="http://www.w3.org/1999/xlink" x="0px" y="0px" width="37px"
	 height="42px" viewBox="0 0 37 42" enable-background="new 0 0 37 42" xml:space="preserve">
<g id="Layer_3">
	<g>
		<path fill="#FFFFFF" d="M18.5,1C8.85,1,1,8.1033,1,16.8334c0,9.5785,12.1667,20.4752,15.8999,23.5869
			c0.9273,0.773,2.2745,0.773,3.2018,0C23.8333,37.3067,36,26.4102,36,16.8334C36,8.1033,28.1499,1,18.5,1z"/>
		<g>
			<path fill="#69DD76" d="M26.5397,29.7786c-0.3857,0.1934-0.8321,0.2241-1.2412,0.0876
				c-0.4092-0.1365-0.7471-0.4307-0.9397-0.8157l-1.1766-2.3599h-5.4948c-0.7258,0-1.3639-0.4811-1.5636-1.1781l-1.6252-5.6882
				c-0.2248-0.7866,0.1708-1.6187,0.9231-1.9405l5.2884-2.2671l2.1779-2.9026c0.3485-0.4648,0.9179-0.7087,1.4945-0.6389
				c0.5765,0.07,1.0721,0.4422,1.3,0.9753c0.2283,0.5347,0.1542,1.1489-0.1944,1.6137l-2.4378,3.2636
				c-0.1649,0.2194-0.3829,0.3948-0.6337,0.5071l-3.1352,1.4089c-0.2017,0.0912-0.3577,0.2602-0.4323,0.4681
				c-0.0739,0.2082-0.0598,0.4372,0.0392,0.6355l1.0206,2.0445c0.138,0.2747,0.42,0.4486,0.7281,0.4486h3.5511
				c0.6153,0,1.1778,0.3478,1.4529,0.8987l1.6252,3.2504c0.1955,0.387,0.2287,0.8355,0.0925,1.2465
				C27.2224,29.2455,26.9276,29.5852,26.5397,29.7786z M11.1866,12.2263c0-1.7958,1.455-3.2504,3.2504-3.2504
				c1.7952,0,3.2504,1.4546,3.2504,3.2504s-1.4552,3.2504-3.2504,3.2504C12.6417,15.4767,11.1866,14.0221,11.1866,12.2263z
				 M26.1498,3.1463c-0.2514-0.1138-0.5438-0.0925-0.7762,0.0569c-0.2324,0.1497-0.3728,0.4063-0.3728,0.6827v5.74
				c0,0.6728-0.5457,1.2189-1.2189,1.2189c-0.6733,0-1.2189-0.5461-1.2189-1.2189V2.6232c-0.0002-0.39-0.2779-0.725-0.6616-0.7981
				C20.7802,1.6121,19.6414,1.5033,18.5,1.5C9.09,1.5,1.4354,8.4266,1.4354,16.9394c0,5.3762,3.9279,11.1684,7.9633,15.7012
				c0.2241,0.2519,0.5808,0.3395,0.8966,0.2209c0.3153-0.1201,0.5241-0.4226,0.5238-0.7606v-0.6355
				c0.0343-1.9112,0.5797-3.7784,1.5799-5.407c0.38-0.5557,1.1385-0.697,1.6943-0.3167c0.5557,0.3787,0.6977,1.1375,0.3177,1.6935
				c-0.7232,1.2238-1.1206,2.6115-1.1541,4.0319v4.8124c0,0.2225,0.0918,0.437,0.2535,0.5898
				c1.4027,1.3296,2.6249,2.3908,3.4342,3.0653c0.9041,0.7541,2.2179,0.7541,3.1218,0c3.6341-3.031,15.498-13.6567,15.498-22.9951
				C35.4131,10.8904,31.7283,5.4916,26.1498,3.1463z"/>
		</g>
		<path fill="#FFFFFF" d="M18.5,1C28.1499,1,36,8.1034,36,16.8334c0,9.5768-12.1667,20.4734-15.8984,23.5869
			C19.638,40.8068,19.0694,41,18.5008,41c-0.5686,0-1.1373-0.1932-1.6009-0.5798C13.1667,37.3086,1,26.4119,1,16.8334
			C1,8.1034,8.85,1,18.5,1 M18.5,0C8.299,0,0,7.5514,0,16.8334c0,10.0233,12.4453,21.1757,16.2596,24.355
			C16.8874,41.7118,17.6834,42,18.5007,42c0.8174,0,1.6133-0.2882,2.2412-0.8116C24.5562,38.006,37,26.8454,37,16.8334
			C37,7.5514,28.701,0,18.5,0L18.5,0z"/>
	</g>
</g>
<g id="Layer_2_1_" display="none">
	<g display="inline">
		<path fill="#69DD76" d="M18.5,1C8.85,1,1,8.1033,1,16.8334c0,9.5785,12.1667,20.4752,15.8999,23.5869
			c0.9273,0.773,2.2745,0.773,3.2018,0C23.8333,37.3067,36,26.4102,36,16.8334C36,8.1033,28.1499,1,18.5,1z"/>
		<g>
			<path fill="#3B3B3A" d="M26.5397,29.7786c-0.3857,0.1934-0.8321,0.2241-1.2412,0.0876
				c-0.4092-0.1365-0.7471-0.4307-0.9397-0.8157l-1.1766-2.3599h-5.4948c-0.7258,0-1.3639-0.4811-1.5636-1.1781l-1.6252-5.6882
				c-0.2248-0.7866,0.1708-1.6187,0.9231-1.9405l5.2884-2.2671l2.1779-2.9026c0.3485-0.4648,0.9179-0.7087,1.4945-0.6389
				c0.5765,0.07,1.0721,0.4422,1.3,0.9753c0.2283,0.5347,0.1542,1.1489-0.1944,1.6137l-2.4378,3.2636
				c-0.1649,0.2194-0.3829,0.3948-0.6337,0.5071l-3.1352,1.4089c-0.2017,0.0912-0.3577,0.2602-0.4323,0.4681
				c-0.0739,0.2082-0.0598,0.4372,0.0392,0.6355l1.0206,2.0445c0.138,0.2747,0.42,0.4486,0.7281,0.4486h3.5511
				c0.6153,0,1.1778,0.3478,1.4529,0.8987l1.6252,3.2504c0.1955,0.387,0.2287,0.8355,0.0925,1.2465
				C27.2224,29.2455,26.9276,29.5852,26.5397,29.7786z M11.1866,12.2263c0-1.7958,1.455-3.2504,3.2504-3.2504
				c1.7952,0,3.2504,1.4546,3.2504,3.2504s-1.4552,3.2504-3.2504,3.2504C12.6417,15.4767,11.1866,14.0221,11.1866,12.2263z
				 M26.1498,3.1463c-0.2514-0.1138-0.5438-0.0925-0.7762,0.0569c-0.2324,0.1497-0.3728,0.4063-0.3728,0.6827v5.74
				c0,0.6728-0.5457,1.2189-1.2189,1.2189c-0.6733,0-1.2189-0.5461-1.2189-1.2189V2.6232c-0.0002-0.39-0.2779-0.725-0.6616-0.7981
				C20.7802,1.6121,19.6414,1.5033,18.5,1.5C9.09,1.5,1.4354,8.4266,1.4354,16.9394c0,5.3762,3.9279,11.1684,7.9633,15.7012
				c0.2241,0.2519,0.5808,0.3395,0.8966,0.2209c0.3153-0.1201,0.5241-0.4226,0.5238-0.7606v-0.6355
				c0.0343-1.9112,0.5797-3.7784,1.5799-5.407c0.38-0.5557,1.1385-0.697,1.6943-0.3167c0.5557,0.3787,0.6977,1.1375,0.3177,1.6935
				c-0.7232,1.2238-1.1206,2.6115-1.1541,4.0319v4.8124c0,0.2225,0.0918,0.437,0.2535,0.5898
				c1.4027,1.3296,2.6249,2.3908,3.4342,3.0653c0.9041,0.7541,2.2179,0.7541,3.1218,0c3.6341-3.031,15.498-13.6567,15.498-22.9951
				C35.4131,10.8904,31.7283,5.4916,26.1498,3.1463z"/>
		</g>
		<g>
			<path fill="#69DD76" d="M18.5,1C28.1499,1,36,8.1034,36,16.8334c0,9.5768-12.1667,20.4734-15.8984,23.5869
				C19.638,40.8068,19.0694,41,18.5008,41c-0.5686,0-1.1373-0.1932-1.6009-0.5798C13.1667,37.3086,1,26.4119,1,16.8334
				C1,8.1034,8.85,1,18.5,1 M18.5,0C8.299,0,0,7.5514,0,16.8334c0,10.0233,12.4453,21.1757,16.2596,24.355
				C16.8874,41.7118,17.6834,42,18.5007,42c0.8174,0,1.6133-0.2882,2.2412-0.8116C24.5562,38.006,37,26.8454,37,16.8334
				C37,7.5514,28.701,0,18.5,0L18.5,0z"/>
		</g>
	</g>
</g>
</svg>
