<?xml version="1.0" encoding="utf-8"?>
<!-- Generator: Adobe Illustrator 23.0.1, SVG Export Plug-In . SVG Version: 6.00 Build 0)  -->
<svg version="1.1" id="Layer_1" xmlns="http://www.w3.org/2000/svg" xmlns:xlink="http://www.w3.org/1999/xlink" x="0px" y="0px"
	 width="37px" height="42px" viewBox="0 0 37 42" enable-background="new 0 0 37 42" xml:space="preserve">
<g id="Climbing" display="none">
	<g display="inline">
		<path fill="#FFFFFF" d="M18.5,1C8.85,1,1,8.1033,1,16.8334c0,9.5785,12.1667,20.4752,15.8999,23.5869
			c0.9273,0.773,2.2745,0.773,3.2018,0C23.8333,37.3067,36,26.4102,36,16.8334C36,8.1033,28.1499,1,18.5,1z"/>
		<g>
			<path fill="#69DD76" d="M26.5397,29.7786c-0.3857,0.1934-0.8321,0.2241-1.2412,0.0876
				c-0.4092-0.1365-0.7471-0.4307-0.9397-0.8157l-1.1766-2.3599h-5.4948c-0.7258,0-1.3639-0.4811-1.5636-1.1781l-1.6252-5.6882
				c-0.2248-0.7866,0.1708-1.6187,0.9231-1.9405l5.2884-2.2671l2.1779-2.9026c0.3485-0.4648,0.9179-0.7087,1.4945-0.6389
				c0.5765,0.07,1.0721,0.4422,1.3,0.9753c0.2283,0.5347,0.1542,1.1489-0.1944,1.6137l-2.4378,3.2636
				c-0.1649,0.2194-0.3829,0.3948-0.6337,0.5071l-3.1352,1.4089c-0.2017,0.0912-0.3577,0.2602-0.4323,0.4681
				c-0.0739,0.2082-0.0598,0.4372,0.0392,0.6355l1.0206,2.0445c0.138,0.2747,0.42,0.4486,0.7281,0.4486h3.5511
				c0.6153,0,1.1778,0.3478,1.4529,0.8987l1.6252,3.2504c0.1955,0.387,0.2287,0.8355,0.0925,1.2465
				C27.2224,29.2455,26.9276,29.5852,26.5397,29.7786z M11.1866,12.2263c0-1.7958,1.455-3.2504,3.2504-3.2504
				c1.7952,0,3.2504,1.4546,3.2504,3.2504s-1.4552,3.2504-3.2504,3.2504C12.6417,15.4767,11.1866,14.0221,11.1866,12.2263z
				 M26.1498,3.1463c-0.2514-0.1138-0.5438-0.0925-0.7762,0.0569c-0.2324,0.1497-0.3728,0.4063-0.3728,0.6827v5.74
				c0,0.6728-0.5457,1.2189-1.2189,1.2189c-0.6733,0-1.2189-0.5461-1.2189-1.2189V2.6232c-0.0002-0.39-0.2779-0.725-0.6616-0.7981
				C20.7802,1.6121,19.6414,1.5033,18.5,1.5C9.09,1.5,1.4354,8.4266,1.4354,16.9394c0,5.3762,3.9279,11.1684,7.9633,15.7012
				c0.2241,0.2519,0.5808,0.3395,0.8966,0.2209c0.3153-0.1201,0.5241-0.4226,0.5238-0.7606v-0.6355
				c0.0343-1.9112,0.5797-3.7784,1.5799-5.407c0.38-0.5557,1.1385-0.697,1.6943-0.3167c0.5557,0.3787,0.6977,1.1375,0.3177,1.6935
				c-0.7232,1.2238-1.1206,2.6115-1.1541,4.0319v4.8124c0,0.2225,0.0918,0.437,0.2535,0.5898
				c1.4027,1.3296,2.6249,2.3908,3.4342,3.0653c0.9041,0.7541,2.2179,0.7541,3.1218,0c3.6341-3.031,15.498-13.6567,15.498-22.9951
				C35.4131,10.8904,31.7283,5.4916,26.1498,3.1463z"/>
		</g>
		<path fill="#FFFFFF" d="M18.5,1C28.1499,1,36,8.1034,36,16.8334c0,9.5768-12.1667,20.4734-15.8984,23.5869
			C19.638,40.8068,19.0694,41,18.5008,41c-0.5686,0-1.1373-0.1932-1.6009-0.5798C13.1667,37.3086,1,26.4119,1,16.8334
			C1,8.1034,8.85,1,18.5,1 M18.5,0C8.299,0,0,7.5514,0,16.8334c0,10.0233,12.4453,21.1757,16.2596,24.355
			C16.8874,41.7118,17.6834,42,18.5007,42c0.8174,0,1.6133-0.2882,2.2412-0.8116C24.5562,38.006,37,26.8454,37,16.8334
			C37,7.5514,28.701,0,18.5,0L18.5,0z"/>
	</g>
</g>
<g id="Trailhead">
	<g>
		<g>
			<path fill="#FFFFFF" d="M18.5,1C28.1499,1,36,8.1034,36,16.8334c0,9.5769-12.1667,20.4734-15.8984,23.5869
				C19.638,40.8068,19.0694,41,18.5008,41s-1.1373-0.1933-1.6009-0.5798C13.1667,37.3086,1,26.4119,1,16.8334
				C1,8.1034,8.85,1,18.5,1 M18.5,0C8.299,0,0,7.5514,0,16.8334c0,10.0233,12.4453,21.1757,16.2596,24.355
				C16.8874,41.7118,17.6834,42,18.5008,42s1.6133-0.2882,2.2412-0.8116C24.5562,38.006,37,26.8454,37,16.8334
				C37,7.5514,28.701,0,18.5,0L18.5,0z"/>
		</g>
	</g>
</g>
<g id="Campsite" display="none">
	<g display="inline">
		<g>
			<g>
				<path fill="#FFFFFF" d="M18.5,1C8.85,1,1,8.1033,1,16.8334c0,9.5785,12.1667,20.4752,15.8999,23.5869
					c0.9273,0.773,2.2745,0.773,3.2018,0C23.8333,37.3067,36,26.4102,36,16.8334C36,8.1033,28.1499,1,18.5,1z"/>
				<path fill="#FFFFFF" d="M18.5,1C28.1499,1,36,8.1034,36,16.8334c0,9.5769-12.1667,20.4734-15.8984,23.5869
					C19.638,40.8068,19.0694,41,18.5008,41s-1.1373-0.1933-1.6009-0.5798C13.1667,37.3086,1,26.4119,1,16.8334
					C1,8.1034,8.85,1,18.5,1 M18.5,0C8.299,0,0,7.5514,0,16.8334c0,10.0233,12.4453,21.1757,16.2596,24.355
					C16.8874,41.7118,17.6834,42,18.5008,42s1.6133-0.2882,2.2412-0.8116C24.5562,38.006,37,26.8454,37,16.8334
					C37,7.5514,28.701,0,18.5,0L18.5,0z"/>
			</g>
		</g>
		<path fill="#69DD76" d="M27.4375,26.2813h-4.0739c-0.3075,0-0.5886-0.1735-0.7265-0.4485l-3.4123-6.825
			c-0.1529-0.2555-0.4288-0.4118-0.7265-0.4118s-0.5735,0.1563-0.7262,0.4118l-3.4127,6.825
			c-0.1378,0.275-0.4188,0.4485-0.7262,0.4485H9.5625c-0.4404-0.0081-0.8427-0.2507-1.0551-0.6367
			c-0.2124-0.3859-0.2023-0.8556,0.0265-1.2319l8.2436-12.9596c0.1688-0.2659,0.1688-0.6052,0-0.871l-1.7436-2.7446
			c-0.2629-0.3676-0.3005-0.8507-0.098-1.2547C15.1385,6.179,15.548,5.92,15.9998,5.9107c0.4519-0.0096,0.8718,0.2317,1.0912,0.6269
			l0.7233,1.1373c0.149,0.2347,0.4076,0.3767,0.6858,0.3767c0.278,0,0.5366-0.142,0.6858-0.3767l0.7231-1.1373
			c0.2194-0.3952,0.6394-0.6365,1.0912-0.6269C21.4518,5.92,21.8613,6.179,22.064,6.5828c0.2025,0.404,0.1649,0.8871-0.098,1.2547
			l-1.7435,2.7446c-0.169,0.2659-0.169,0.6052,0,0.871l8.2435,12.9596c0.2288,0.3764,0.2389,0.846,0.0265,1.2319
			C28.2801,26.0306,27.8777,26.2732,27.4375,26.2813z M18.5,1.5C9.0911,1.5,1.4375,8.4258,1.4375,16.9375
			c0,9.3405,11.8624,19.9633,15.5025,22.9972c0.904,0.7537,2.2175,0.7537,3.1216,0C23.7,36.8991,35.5625,26.275,35.5625,16.9375
			C35.5625,8.4258,27.9088,1.5,18.5,1.5z"/>
	</g>
</g>
<g id="High_Camp" display="none">
	<g display="inline">
		<g>
			<g>
				<path fill="#69DD76" d="M18.5,1C8.85,1,1,8.1033,1,16.8334c0,9.5785,12.1667,20.4752,15.8999,23.5869
					c0.9273,0.773,2.2745,0.773,3.2018,0C23.8333,37.3067,36,26.4102,36,16.8334C36,8.1033,28.1499,1,18.5,1z"/>
				<path fill="#69DD76" d="M18.5,1C28.1499,1,36,8.1034,36,16.8334c0,9.5769-12.1667,20.4734-15.8984,23.5869
					C19.638,40.8068,19.0694,41,18.5008,41s-1.1373-0.1933-1.6009-0.5798C13.1667,37.3086,1,26.4119,1,16.8334
					C1,8.1034,8.85,1,18.5,1 M18.5,0C8.299,0,0,7.5514,0,16.8334c0,10.0233,12.4453,21.1757,16.2596,24.355
					C16.8874,41.7118,17.6834,42,18.5008,42s1.6133-0.2882,2.2412-0.8116C24.5562,38.006,37,26.8454,37,16.8334
					C37,7.5514,28.701,0,18.5,0L18.5,0z"/>
			</g>
		</g>
		<path fill="#FFFFFF" d="M27.4375,26.2813h-4.0739c-0.3075,0-0.5886-0.1735-0.7265-0.4485l-3.4123-6.825
			c-0.1529-0.2555-0.4288-0.4118-0.7265-0.4118s-0.5735,0.1563-0.7262,0.4118l-3.4127,6.825
			c-0.1378,0.275-0.4188,0.4485-0.7262,0.4485H9.5625c-0.4404-0.0081-0.8427-0.2507-1.0551-0.6367
			c-0.2124-0.3859-0.2023-0.8556,0.0265-1.2319l8.2436-12.9596c0.1688-0.2659,0.1688-0.6052,0-0.871l-1.7436-2.7446
			c-0.2629-0.3676-0.3005-0.8507-0.098-1.2547C15.1385,6.179,15.548,5.92,15.9998,5.9107c0.4519-0.0096,0.8718,0.2317,1.0912,0.6269
			l0.7233,1.1373c0.149,0.2347,0.4076,0.3767,0.6858,0.3767c0.278,0,0.5366-0.142,0.6858-0.3767l0.7231-1.1373
			c0.2194-0.3952,0.6394-0.6365,1.0912-0.6269C21.4518,5.92,21.8613,6.179,22.064,6.5828c0.2025,0.404,0.1649,0.8871-0.098,1.2547
			l-1.7435,2.7446c-0.169,0.2659-0.169,0.6052,0,0.871l8.2435,12.9596c0.2288,0.3764,0.2389,0.846,0.0265,1.2319
			C28.2801,26.0306,27.8777,26.2732,27.4375,26.2813z M18.5,1.5C9.0911,1.5,1.4375,8.4258,1.4375,16.9375
			c0,9.3405,11.8624,19.9633,15.5025,22.9972c0.904,0.7537,2.2175,0.7537,3.1216,0C23.7,36.8991,35.5625,26.275,35.5625,16.9375
			C35.5625,8.4258,27.9088,1.5,18.5,1.5z"/>
	</g>
</g>
<g id="Ranger_Station">
	<g>
		<g>
			<g>
				<g>
					<path fill="#FFFFFF" d="M18.5,1C28.1499,1,36,8.1034,36,16.8334c0,9.5769-12.1667,20.4734-15.8984,23.5869
						C19.638,40.8068,19.0694,41,18.5008,41s-1.1373-0.1933-1.6009-0.5798C13.1667,37.3086,1,26.4119,1,16.8334
						C1,8.1034,8.85,1,18.5,1 M18.5,0C8.299,0,0,7.5514,0,16.8334c0,10.0233,12.4453,21.1757,16.2596,24.355
						C16.8874,41.7118,17.6834,42,18.5008,42s1.6133-0.2882,2.2412-0.8116C24.5562,38.006,37,26.8454,37,16.8334
						C37,7.5514,28.701,0,18.5,0L18.5,0z"/>
				</g>
			</g>
		</g>
	</g>
</g>
<g id="Drinking_Water">
	<g>
		<g>
			<g>
				<g>
					<g>
						<path fill="#FFFFFF" d="M18.5,1C8.85,1,1,8.1033,1,16.8334c0,9.5785,12.1667,20.4752,15.8999,23.5869
							c0.9273,0.773,2.2745,0.773,3.2018,0C23.8333,37.3067,36,26.4102,36,16.8334C36,8.1033,28.1499,1,18.5,1z"/>
						<path fill="#FFFFFF" d="M18.5,1C28.1499,1,36,8.1034,36,16.8334c0,9.5769-12.1667,20.4734-15.8984,23.5869
							C19.638,40.8068,19.0694,41,18.5008,41s-1.1373-0.1933-1.6009-0.5798C13.1667,37.3086,1,26.4119,1,16.8334
							C1,8.1034,8.85,1,18.5,1 M18.5,0C8.299,0,0,7.5514,0,16.8334c0,10.0233,12.4453,21.1757,16.2596,24.355
							C16.8874,41.7118,17.6834,42,18.5008,42s1.6133-0.2882,2.2412-0.8116C24.5562,38.006,37,26.8454,37,16.8334
							C37,7.5514,28.701,0,18.5,0L18.5,0z"/>
					</g>
				</g>
			</g>
		</g>
	</g>
</g>
<path fill="#00A8E8" d="M27.4376,16.9376c0,0.8977-0.7275,1.625-1.625,1.625h-4.875c-0.4487,0-0.8125,0.3638-0.8125,0.8125v4.875
	c0,0.8977-0.7275,1.625-1.625,1.625c-0.8977,0-1.625-0.7274-1.625-1.625v-4.875c0-0.4487-0.364-0.8125-0.8125-0.8125h-4.875
	c-0.8977,0-1.625-0.7274-1.625-1.625c0-0.8975,0.7274-1.625,1.625-1.625h4.875c0.4485,0,0.8125-0.3637,0.8125-0.8125v-4.875
	C16.875,8.7276,17.6023,8,18.5,8c0.8975,0,1.625,0.7275,1.625,1.625v4.875c0,0.4488,0.3638,0.8125,0.8125,0.8125h4.875
	C26.71,15.3126,27.4376,16.0401,27.4376,16.9376z M18.5,1.5C9.091,1.5,1.4374,8.426,1.4374,16.9376
	c0,9.3391,11.8624,19.9633,15.5026,22.9972c0.904,0.7537,2.2175,0.7537,3.1216,0c3.6384-3.0355,15.501-13.6598,15.501-22.9972
	C35.5626,8.426,27.9088,1.5,18.5,1.5z"/>
</svg>
