<?xml version="1.0" encoding="utf-8"?>
<!-- Generator: Adobe Illustrator 25.3.1, SVG Export Plug-In . SVG Version: 6.00 Build 0)  -->
<svg version="1.1" id="Layer_1" xmlns="http://www.w3.org/2000/svg" xmlns:xlink="http://www.w3.org/1999/xlink" x="0px" y="0px"
	 width="32px" height="32px" viewBox="0 0 32 32" style="enable-background:new 0 0 32 32;" xml:space="preserve">
<style type="text/css">
	.st0{fill:#414042;}
	.st1{fill:#FFFFFF;}
	.st2{fill:#006838;}
</style>
<g>
	<path class="st0" d="M28.2,0H3.8C1.7,0,0,1.7,0,3.8v24.4C0,30.3,1.7,32,3.8,32h24.4c2.1,0,3.8-1.7,3.8-3.8V3.8
		C32,1.7,30.3,0,28.2,0z"/>
	<path class="st1" d="M18.3,13.4V7.9h1.9c0.8,0,0.9,0.5,1,0.6C21.6,8.8,21.8,9,22.2,9h2.1V4.3h-2.1c-0.4,0-0.6-0.2-0.9-0.5
		c-0.1-0.1-0.2-0.6-1-0.6h-2.9v9.5L16,11.9L4.3,19.4h2.7v9.1h6.6v-7.2h4.6v7.1h6.6v-9h2.7L18.3,13.4z"/>
</g>
</svg>
