<?xml version="1.0" encoding="utf-8"?>
<!-- Generator: Adobe Illustrator 25.3.1, SVG Export Plug-In . SVG Version: 6.00 Build 0)  -->
<svg version="1.1" id="Layer_1" xmlns="http://www.w3.org/2000/svg" xmlns:xlink="http://www.w3.org/1999/xlink" x="0px" y="0px"
	 width="32px" height="32px" viewBox="0 0 32 32" style="enable-background:new 0 0 32 32;" xml:space="preserve">
<style type="text/css">
	.st0{fill:#414042;}
	.st1{fill:#FFFFFF;}
	.st2{fill:#006838;}
</style>
<g>
	<path class="st0" d="M28.2,0H3.8C1.7,0,0,1.7,0,3.8v24.4C0,30.3,1.7,32,3.8,32h24.4c2.1,0,3.8-1.7,3.8-3.8V3.8
		C32,1.7,30.3,0,28.2,0z"/>
	<path class="st1" d="M16.4,6.7c1.2,0,2.1-1,2.1-2.1s-1-2.1-2.1-2.1s-2.1,1-2.1,2.1S15.2,6.7,16.4,6.7z"/>
	<path class="st1" d="M12.7,7c0.1-0.3-0.1-0.7-0.4-0.7l-1.8-0.4C10.2,5.8,9.8,6,9.8,6.3l-1.5,6.2c-0.1,0.3,0.1,0.7,0.4,0.7l1.8,0.4
		c0.3,0.1,0.7-0.1,0.7-0.4L12.7,7z"/>
	<path class="st1" d="M21,29.1C21,29.1,21,29.1,21,29.1c0,0.3,0.2,0.5,0.5,0.5c0.2,0,0.5-0.2,0.5-0.4l3.6-19.5c0,0,0,0,0,0
		c0-0.3-0.2-0.5-0.5-0.5c-0.2,0-0.4,0.2-0.5,0.4L21,29.1z"/>
	<path class="st1" d="M9,27.8c0,0.1,0,0.2,0,0.3c0,0.8,0.7,1.5,1.5,1.5c0.7,0,1.3-0.5,1.4-1.1l2.6-10.7L17,28.5
		c0.2,0.7,0.8,1.1,1.5,1.1c0.8,0,1.5-0.7,1.5-1.5c0-0.1,0-0.2,0-0.3l-3.4-14.1l0.3-1.2l0.2,1c0.2,0.6,0.8,0.7,0.8,0.7l3.5,0.9
		c0.1,0,0.1,0,0.2,0c0.6,0,1-0.5,1-1c0-0.5-0.3-0.9-0.8-1l-3-0.8l-0.8-3.4C17.5,7,15.7,7,15.7,7c-1.7,0-2.2,1.8-2.2,1.8L9,27.8z"/>
</g>
</svg>
