<?xml version="1.0" encoding="utf-8"?>
<!-- Generator: Adobe Illustrator 25.3.1, SVG Export Plug-In . SVG Version: 6.00 Build 0)  -->
<svg version="1.1" id="Layer_1" xmlns="http://www.w3.org/2000/svg" xmlns:xlink="http://www.w3.org/1999/xlink" x="0px" y="0px"
	 width="32px" height="32px" viewBox="0 0 32 32" style="enable-background:new 0 0 32 32;" xml:space="preserve">
<style type="text/css">
	.st0{fill:#414042;}
	.st1{fill:#FFFFFF;}
</style>
<g>
	<path class="st0" d="M28.2,0H3.8C1.7,0,0,1.7,0,3.8v24.4C0,30.3,1.7,32,3.8,32h24.4c2.1,0,3.8-1.7,3.8-3.8V3.8
		C32,1.7,30.3,0,28.2,0z"/>
	<path class="st1" d="M21.5,8.7c-0.4,0.4-1,0.6-1.6,0.6c-0.8,0-1.5-0.3-1.9-0.9C17.6,9,16.8,9.3,16,9.3c-0.8,0-1.5-0.3-1.9-0.9
		C13.7,9,13,9.3,12.2,9.3c-0.6,0-1.1-0.1-1.5-0.5l-0.3-2.2c0.4,0.6,1.1,0.9,1.8,0.9c0.8,0,1.5-0.4,1.9-1c0.4,0.6,1.1,1,1.9,1
		c0.8,0,1.5-0.4,1.9-1c0.4,0.6,1.1,1,1.9,1c0.8,0,1.5-0.4,1.9-1L21.5,8.7z"/>
	<polygon class="st1" points="22.1,27.3 25.6,4.9 23.3,5 20.1,25 12.1,25 8.9,5 6.6,4.9 10.1,27.3 	"/>
</g>
</svg>
