<?xml version="1.0" encoding="utf-8"?>
<!-- Generator: Adobe Illustrator 23.0.1, SVG Export Plug-In . SVG Version: 6.00 Build 0)  -->
<svg version="1.1" id="Layer_1" xmlns="http://www.w3.org/2000/svg" xmlns:xlink="http://www.w3.org/1999/xlink" x="0px" y="0px"
	 width="60px" height="60px" viewBox="0 0 60 60" enable-background="new 0 0 60 60" xml:space="preserve">
<g>
	<rect fill="#FFFFFF" width="60" height="60"/>
	<g>
		<g id="Rectangle-path_107">
			<path fill="#69DD76" d="M44.8723,47.7434h-29.745c-1.6102,0-2.8717-1.2614-2.8717-2.872V15.1282
				c0-1.6102,1.2616-2.8716,2.8717-2.8716h29.745c1.6106,0,2.8722,1.2614,2.8722,2.8716v29.7433
				C47.7445,46.482,46.4829,47.7434,44.8723,47.7434z M15.1273,13.5424c-0.8894,0-1.5859,0.6965-1.5859,1.5858v29.7433
				c0,0.8898,0.6965,1.5863,1.5859,1.5863h29.745c0.8899,0,1.5864-0.6965,1.5864-1.5863V15.1282
				c0-0.8894-0.6965-1.5858-1.5864-1.5858H15.1273z"/>
		</g>
		<g>
			<g>
				<g>
					<path id="SVGID_1_" fill="#69DD76" d="M39.472,39.6701c0.2366-0.0001,0.4542-0.1303,0.5662-0.3388
						c0.112-0.2084,0.1003-0.4616-0.0304-0.659l-8.9082-13.766c-0.0949-0.1434-0.0949-0.3298,0-0.4732l1.8001-2.7181
						c0.2354-0.3937,0.1192-0.9029-0.2638-1.1555c-0.383-0.2525-0.8969-0.1589-1.166,0.2125l-1.0698,1.6123
						c-0.0793,0.1199-0.2136,0.1921-0.3575,0.1921c-0.1439,0-0.278-0.0721-0.3575-0.1921l-1.0706-1.6148
						c-0.2692-0.3714-0.7831-0.4651-1.166-0.2125c-0.3829,0.2525-0.4992,0.7618-0.2638,1.1555l1.8001,2.7181
						c0.095,0.1434,0.095,0.3298,0,0.4732l-8.9072,13.7686c-0.1307,0.1973-0.1423,0.4505-0.0304,0.659
						c0.112,0.2084,0.3294,0.3386,0.5662,0.3388h5.0867c0.1505,0.0001,0.29-0.0785,0.3678-0.2075l3.6072-6.013
						c0.083-0.1213,0.2207-0.1938,0.3678-0.1938c0.1471,0,0.2846,0.0725,0.3678,0.1938l3.6072,6.013
						c0.0776,0.1289,0.2172,0.2076,0.3678,0.2075H39.472z"/>
				</g>
				<path fill="none" d="M39.472,39.6701c0.2366-0.0001,0.4542-0.1303,0.5662-0.3388c0.112-0.2084,0.1003-0.4616-0.0304-0.659
					l-8.9082-13.766c-0.0949-0.1434-0.0949-0.3298,0-0.4732l1.8001-2.7181c0.2354-0.3937,0.1192-0.9029-0.2638-1.1555
					c-0.383-0.2525-0.8969-0.1589-1.166,0.2125l-1.0698,1.6123c-0.0793,0.1199-0.2136,0.1921-0.3575,0.1921
					c-0.1439,0-0.278-0.0721-0.3575-0.1921l-1.0706-1.6148c-0.2692-0.3714-0.7831-0.4651-1.166-0.2125
					c-0.3829,0.2525-0.4992,0.7618-0.2638,1.1555l1.8001,2.7181c0.095,0.1434,0.095,0.3298,0,0.4732l-8.9072,13.7686
					c-0.1307,0.1973-0.1423,0.4505-0.0304,0.659c0.112,0.2084,0.3294,0.3386,0.5662,0.3388h5.0867
					c0.1505,0.0001,0.29-0.0785,0.3678-0.2075l3.6072-6.013c0.083-0.1213,0.2207-0.1938,0.3678-0.1938
					c0.1471,0,0.2846,0.0725,0.3678,0.1938l3.6072,6.013c0.0776,0.1289,0.2172,0.2076,0.3678,0.2075H39.472z"/>
			</g>
		</g>
	</g>
</g>
</svg>
