<?xml version="1.0" encoding="utf-8"?>
<!-- Generator: Adobe Illustrator 23.0.1, SVG Export Plug-In . SVG Version: 6.00 Build 0)  -->
<svg version="1.1" id="Layer_1" xmlns="http://www.w3.org/2000/svg" xmlns:xlink="http://www.w3.org/1999/xlink" x="0px" y="0px"
	 width="60px" height="60px" viewBox="0 0 60 60" enable-background="new 0 0 60 60" xml:space="preserve">
<g>
	<rect fill="#FFFFFF" width="60" height="60"/>
	<g>
		<g>
			<g id="Rectangle-path_107">
				<path fill="#69DD76" d="M44.8714,47.7427H15.1283c-1.61,0-2.8716-1.2614-2.8716-2.8718V15.1288
					c0-1.61,1.2614-2.8715,2.8716-2.8715h29.7431c1.6105,0,2.872,1.2614,2.872,2.8715v29.7421
					C47.7433,46.4814,46.4819,47.7427,44.8714,47.7427z M15.1283,13.543c-0.8894,0-1.5858,0.6964-1.5858,1.5858v29.7421
					c0,0.8898,0.6965,1.5862,1.5858,1.5862h29.7431c0.8898,0,1.5863-0.6964,1.5863-1.5862V15.1288
					c0-0.8893-0.6965-1.5858-1.5863-1.5858H15.1283z"/>
			</g>
			<g>
				<g>
					<path id="SVGID_1_" fill="#69DD76" d="M29.6142,27.6698c0-0.2366,0.1919-0.4285,0.4285-0.4285
						c0.2366,0,0.4285,0.1919,0.4285,0.4285v6.1345c-0.0001,0.0953,0.0316,0.1879,0.09,0.2632l2.82,3.6248
						c0.1006,0.1292,0.1187,0.3044,0.0467,0.4516c-0.0719,0.1471-0.2215,0.2402-0.3852,0.2401h-3
						c-0.2366,0-0.4285-0.1919-0.4285-0.4285C29.6142,37.9555,29.6142,27.6698,29.6142,27.6698z M39.4715,39.6696
						c0.2366-0.0001,0.4541-0.1303,0.566-0.3388c0.112-0.2084,0.1003-0.4616-0.0304-0.6589l-8.9076-13.7654
						c-0.0949-0.1434-0.0949-0.3298,0-0.4732l1.8-2.718c0.2353-0.3937,0.1192-0.9029-0.2638-1.1554
						c-0.3829-0.2525-0.8969-0.1589-1.166,0.2125l-1.0697,1.6122c-0.0793,0.1199-0.2136,0.1921-0.3575,0.1921
						c-0.1439,0-0.278-0.0721-0.3575-0.1921L28.6147,20.77c-0.2692-0.3714-0.783-0.4651-1.166-0.2125
						c-0.3829,0.2525-0.4991,0.7618-0.2638,1.1554l1.8,2.718c0.0949,0.1434,0.0949,0.3298,0,0.4732l-8.9066,13.768
						c-0.1307,0.1973-0.1423,0.4505-0.0304,0.6589c0.112,0.2084,0.3294,0.3386,0.566,0.3388
						C20.614,39.6696,39.4715,39.6696,39.4715,39.6696z"/>
				</g>
				<path fill="none" d="M29.6142,27.6698c0-0.2366,0.1919-0.4285,0.4285-0.4285c0.2366,0,0.4285,0.1919,0.4285,0.4285v6.1345
					c-0.0001,0.0953,0.0316,0.1879,0.09,0.2632l2.82,3.6248c0.1006,0.1292,0.1187,0.3044,0.0467,0.4516
					c-0.0719,0.1471-0.2215,0.2402-0.3852,0.2401h-3c-0.2366,0-0.4285-0.1919-0.4285-0.4285
					C29.6142,37.9555,29.6142,27.6698,29.6142,27.6698z M39.4715,39.6696c0.2366-0.0001,0.4541-0.1303,0.566-0.3388
					c0.112-0.2084,0.1003-0.4616-0.0304-0.6589l-8.9076-13.7654c-0.0949-0.1434-0.0949-0.3298,0-0.4732l1.8-2.718
					c0.2353-0.3937,0.1192-0.9029-0.2638-1.1554c-0.3829-0.2525-0.8969-0.1589-1.166,0.2125l-1.0697,1.6122
					c-0.0793,0.1199-0.2136,0.1921-0.3575,0.1921c-0.1439,0-0.278-0.0721-0.3575-0.1921L28.6147,20.77
					c-0.2692-0.3714-0.783-0.4651-1.166-0.2125c-0.3829,0.2525-0.4991,0.7618-0.2638,1.1554l1.8,2.718
					c0.0949,0.1434,0.0949,0.3298,0,0.4732l-8.9066,13.768c-0.1307,0.1973-0.1423,0.4505-0.0304,0.6589
					c0.112,0.2084,0.3294,0.3386,0.566,0.3388C20.614,39.6696,39.4715,39.6696,39.4715,39.6696z"/>
			</g>
		</g>
	</g>
</g>
</svg>
