<?xml version="1.0" encoding="utf-8"?>
<!-- Generator: Adobe Illustrator 23.0.1, SVG Export Plug-In . SVG Version: 6.00 Build 0)  -->
<svg version="1.1" id="Layer_1" xmlns="http://www.w3.org/2000/svg" xmlns:xlink="http://www.w3.org/1999/xlink" x="0px" y="0px"
	 width="60px" height="60px" viewBox="0 0 60 60" enable-background="new 0 0 60 60" xml:space="preserve">
<g>
	<rect fill="#FFFFFF" width="60" height="60"/>
	<g>
		<g id="Rectangle-path_107">
			<path fill="#69DD76" d="M44.8723,47.7434h-29.745c-1.6102,0-2.8717-1.2614-2.8717-2.872V15.1282
				c0-1.6102,1.2616-2.8716,2.8717-2.8716h29.745c1.6106,0,2.8722,1.2614,2.8722,2.8716v29.7433
				C47.7445,46.482,46.4829,47.7434,44.8723,47.7434z M15.1273,13.5424c-0.8894,0-1.5859,0.6965-1.5859,1.5858v29.7433
				c0,0.8898,0.6965,1.5863,1.5859,1.5863h29.745c0.8899,0,1.5864-0.6965,1.5864-1.5863V15.1282
				c0-0.8894-0.6965-1.5858-1.5864-1.5858H15.1273z"/>
		</g>
		<g>
			<path fill="#69DD76" d="M39.5152,21.159v17.7616c0,0.7759-0.6264,1.4022-1.4023,1.4022H27.8293
				c-0.5609,0-1.0657-0.3366-1.2808-0.86c-0.0373-0.0748-0.1027-0.1216-0.187-0.1403c-0.0748-0.0094-0.1589,0.0187-0.215,0.0841
				c-0.2804,0.3458-0.5234,0.6077-0.6264,0.7105c-0.2804,0.2804-0.7199,0.2804-1.0003,0.0094c-0.2711-0.2804-0.2804-0.7199,0-1.0003
				c0.2336-0.2431,0.458-0.4955,0.6638-0.7572c0.3833-0.4207,0.6544-0.9348,0.7946-1.4957V35.172
				c-0.0094-0.1682,0.056-0.3271,0.1682-0.4487l3.0478-3.5992c0.2057-0.187,0.215-0.5048,0.0373-0.7105
				c-0.187-0.1776-0.4861-0.1776-0.6731,0l-2.0567,2.0472c-0.2711,0.2711-0.7199,0.2711-0.991,0
				c-0.1309-0.1309-0.2057-0.3085-0.2057-0.4955s0.0749-0.3647,0.2057-0.4955l0.7853-0.7759
				c0.0841-0.0935,0.1308-0.2057,0.1308-0.3365v-1.879c0-0.0841-0.0467-0.1682-0.1308-0.2057
				c-0.0749-0.0467-0.1684-0.0373-0.2431,0.0187c-0.7573,0.5609-2.2157,1.449-2.2157,2.3838v4.7114
				c0,0.1495-0.0374,0.2898-0.1216,0.4114l-1.8604,2.5895c-0.1403,0.2149-0.3834,0.3365-0.645,0.3179
				c-0.2525-0.0187-0.4768-0.187-0.5796-0.4206s-0.0748-0.5048,0.0841-0.7105l1.6361-2.2903
				c0.056-0.0749,0.0841-0.1682,0.0841-0.2711v-4.3376c0-1.505,1.234-2.3932,2.5428-3.3373l1.3556-1.0376
				c0.056-0.0468,0.0935-0.1122,0.0935-0.187v-4.9546c0-0.7759,0.6264-1.4022,1.4023-1.4022h2.8981
				c0.4488,0,0.832,0.3179,0.9162,0.7478c0.1309,0.6544,0.7105,1.1218,1.3742,1.1218c0.6637,0,1.2434-0.4674,1.3742-1.1218
				c0.0932-0.4298,0.4766-0.7477,0.916-0.7477h2.8046C38.8888,19.7568,39.5152,20.3831,39.5152,21.159z"/>
		</g>
	</g>
</g>
</svg>
