<?xml version="1.0" encoding="utf-8"?>
<!-- Generator: Adobe Illustrator 23.0.1, SVG Export Plug-In . SVG Version: 6.00 Build 0)  -->
<svg version="1.1" id="Layer_1" xmlns="http://www.w3.org/2000/svg" xmlns:xlink="http://www.w3.org/1999/xlink" x="0px" y="0px"
	 width="70px" height="70px" viewBox="0 0 70 70" style="enable-background:new 0 0 70 70;" xml:space="preserve">
<style type="text/css">
	.st0{fill:#69DD76;}
	.st1{fill:none;stroke:#FFFFFF;stroke-width:1.5;stroke-linecap:round;stroke-linejoin:round;stroke-miterlimit:10;}
</style>
<rect class="st0" width="70" height="70"/>
<g id="Outdoors-Recreation__x2F__Trekking__x2F__trekking-goal">
	<g id="Group_93">
		<g id="Regular_93">
			<path id="Shape_514" class="st1" d="M35.8,34.9c-1.7,0-3.3-1-4.1-2.5l-0.6-1.1c-0.3-0.5-0.9-0.9-1.4-0.9c-0.6,0.1-1.1,0.4-1.4,1
				l-4.5,12.8c-0.2,0.3-0.1,0.9,0.1,1.1c0.2,0.3,0.4,0.6,0.9,0.8c0.2,0.2,0.3,0.2,0.5,0.2c0.6,0,1.2-0.3,1.4-1l1.7-4.6
				c1.3,1,2.1,2.5,2.2,4.2c0,0.9,0.7,1.5,1.5,1.5c0.9,0,1.5-0.7,1.5-1.5c0-3.9-3.1-6.3-4.2-7l0.8-2.2c1.4,1.6,3.5,2.5,5.7,2.5
				c0.9,0,1.5-0.7,1.5-1.5C37.3,35.5,36.6,34.9,35.8,34.9z"/>
			<path id="Oval_45" class="st1" d="M32.7,29.2c1.4,0,2.6-1.2,2.6-2.6S34.1,24,32.7,24s-2.6,1.2-2.6,2.6
				C30.1,28,31.3,29.2,32.7,29.2z"/>
			<path id="Shape_515" class="st1" d="M23.7,35.6l2.3-5.2"/>
			<path id="Shape_516" class="st1" d="M46.3,37.1V24.4c0-0.3-0.1-0.3-0.3-0.5s-0.3-0.3-0.5-0.3h-6c-0.4,0-0.8,0.3-0.8,0.8v8.3"/>
			<path id="Shape_517" class="st1" d="M38.7,29.6h7.6"/>
			<path id="Shape_518" class="st1" d="M41.8,26.6h1.5"/>
		</g>
	</g>
</g>
<path id="Rectangle-path_107" class="st1" d="M15,17.6c0-1.5,1.2-2.6,2.6-2.6h34.7c1.5,0,2.6,1.2,2.6,2.6v34.7
	c0,1.5-1.2,2.6-2.6,2.6H17.6c-1.5,0-2.6-1.2-2.6-2.6V17.6z"/>
</svg>
