<?xml version="1.0" encoding="utf-8"?>
<!-- Generator: Adobe Illustrator 23.0.1, SVG Export Plug-In . SVG Version: 6.00 Build 0)  -->
<svg version="1.1" id="Layer_1" xmlns="http://www.w3.org/2000/svg" xmlns:xlink="http://www.w3.org/1999/xlink" x="0px" y="0px"
	 width="60px" height="60px" viewBox="0 0 60 60" enable-background="new 0 0 60 60" xml:space="preserve">
<rect fill="#FFFFFF" width="60" height="60"/>
<g>
	<g id="Rectangle-path_107">
		<path fill="#69DD76" d="M44.8292,47.7012H15.085c-1.6102,0-2.8717-1.2614-2.8717-2.8721v-29.744
			c0-1.6102,1.2616-2.8716,2.8717-2.8716h29.7443c1.6106,0,2.8721,1.2614,2.8721,2.8716V44.829
			C47.7013,46.4396,46.4399,47.7012,44.8292,47.7012z M15.085,13.4993c-0.8894,0-1.5859,0.6965-1.5859,1.5859v29.7439
			c0,0.8898,0.6965,1.5863,1.5859,1.5863h29.7443c0.8898,0,1.5863-0.6965,1.5863-1.5863v-29.744
			c0-0.8894-0.6965-1.5859-1.5863-1.5859H15.085V13.4993z"/>
	</g>
	<g>
		<path fill="#69DD76" d="M23.7103,23.8668c0.1638-0.1499,0.4148-0.1499,0.5786,0c0.3292,0.3,0.7057,0.5444,1.1143,0.7218
			c0.1945,0.0848,0.2974,0.3,0.2417,0.5048c-0.2014,0.7448-0.8773,1.2626-1.6493,1.2626s-1.4479-0.5177-1.6493-1.2626
			c-0.0557-0.2048,0.0473-0.42,0.2417-0.5048C22.9994,24.4111,23.3785,24.1678,23.7103,23.8668z M26.6341,29.3657
			c-0.1448-0.4646-0.4112-0.8821-0.7715-1.2095c-0.0973-0.0883-0.1487-0.217-0.139-0.3488
			c0.0097-0.1313,0.0793-0.2503,0.1886-0.3241c1.2514-0.8417,1.8056-2.4026,1.3654-3.8453
			c-0.4403-1.4426-1.7713-2.4284-3.2795-2.4284c-1.5083,0-2.8393,0.9858-3.2795,2.4284c-0.4402,1.4426,0.1141,3.0036,1.3654,3.8453
			c0.1093,0.0738,0.179,0.1928,0.1886,0.3241c0.0097,0.1319-0.0415,0.2605-0.139,0.3488c-0.3602,0.3274-0.6266,0.7448-0.7715,1.2095
			l-1.6286,5.221c-0.0406,0.1303-0.0169,0.2717,0.0635,0.3815c0.0805,0.1097,0.2084,0.1748,0.3445,0.1748h1.1718
			c0.2174-0.0017,0.4016,0.1595,0.4286,0.3755l0.5426,4.3931c0.0274,0.215,0.2114,0.3762,0.4286,0.3746h2.5716
			c0.2171,0.0017,0.4013-0.1595,0.4286-0.3746l0.5495-4.3931c0.0269-0.216,0.2112-0.3772,0.4286-0.3755h1.165
			c0.1363,0,0.2644-0.0653,0.3451-0.1748c0.0808-0.1098,0.1044-0.2512,0.0637-0.3815L26.6341,29.3657z"/>
		<path fill="#69DD76" d="M29.9995,19.7138c-0.4734,0-0.8572,0.384-0.8572,0.8572v18.858c0,0.4732,0.3838,0.8572,0.8572,0.8572
			s0.8572-0.384,0.8572-0.8572V20.571C30.8567,20.0978,30.4729,19.7138,29.9995,19.7138z"/>
		<path fill="#69DD76" d="M34.33,24.2638c0.0295-0.126,0.1145-0.2315,0.2309-0.288c0.1165-0.0565,0.2521-0.0565,0.3691-0.0018
			c0.65,0.3,1.3577,0.4553,2.0736,0.4544c0.1502-0.0008,0.3-0.0085,0.4492-0.025c0.0678-0.0067,0.1352,0.0155,0.186,0.061
			c0.0491,0.0462,0.0764,0.1105,0.0755,0.1783c0,0.9472-0.7675,1.7143-1.7144,1.7143c-0.9468,0-1.7144-0.7672-1.7144-1.7143
			C34.2854,24.5148,34.3003,24.3881,34.33,24.2638z M38.1632,28.0284c-0.1225-0.072-0.2015-0.1997-0.2111-0.341
			c-0.0096-0.1415,0.0515-0.2786,0.1631-0.366c1.1508-0.9026,1.6027-2.4353,1.1255-3.8171
			c-0.4772-1.3828-1.7786-2.3101-3.2411-2.3101s-2.7637,0.9274-3.2411,2.3101c-0.4772,1.3818-0.0253,2.9144,1.1255,3.8171
			c0.1117,0.0875,0.1727,0.2245,0.1631,0.366c-0.0096,0.1415-0.0887,0.269-0.2111,0.341c-1.3129,0.7638-2.1211,2.1671-2.1224,3.6859
			v2.143c0,0.2366,0.1919,0.4286,0.4286,0.4286h1.159c0.2201-0.0008,0.4052,0.1645,0.4286,0.3832l0.5555,5.2348
			c0.0238,0.2186,0.2088,0.3833,0.4286,0.3824h2.5716c0.2198,0.0008,0.4049-0.1638,0.4286-0.3824l0.5606-5.2348
			c0.0233-0.2186,0.2086-0.384,0.4286-0.3832h1.1538c0.2366,0,0.4286-0.192,0.4286-0.4286v-2.143
			C40.2845,30.1955,39.4763,28.7922,38.1632,28.0284z"/>
	</g>
</g>
</svg>
