<?xml version="1.0" encoding="utf-8"?>
<!-- Generator: Adobe Illustrator 23.0.1, SVG Export Plug-In . SVG Version: 6.00 Build 0)  -->
<svg version="1.1" id="Layer_1" xmlns="http://www.w3.org/2000/svg" xmlns:xlink="http://www.w3.org/1999/xlink" x="0px" y="0px"
	 width="60px" height="60px" viewBox="0 0 60 60" enable-background="new 0 0 60 60" xml:space="preserve">
<g>
	<rect fill="#9FE9A7" width="60" height="60"/>
	<g>
		<g id="Rectangle-path_107_1_">
			<path fill="#FFFFFF" d="M44.8714,47.7427H15.1283c-1.61,0-2.8716-1.2614-2.8716-2.8718V15.1288
				c0-1.61,1.2614-2.8715,2.8716-2.8715h29.7431c1.6105,0,2.872,1.2614,2.872,2.8715v29.7421
				C47.7433,46.4814,46.4819,47.7427,44.8714,47.7427z M15.1283,13.543c-0.8894,0-1.5858,0.6964-1.5858,1.5858v29.7421
				c0,0.8898,0.6965,1.5862,1.5858,1.5862h29.7431c0.8898,0,1.5863-0.6964,1.5863-1.5862V15.1288
				c0-0.8893-0.6965-1.5858-1.5863-1.5858H15.1283z"/>
		</g>
		<g>
			<path fill="#FFFFFF" d="M39.4717,20.1857c0-0.2366-0.1919-0.4285-0.4285-0.4285h-0.4285
				c-0.1433,0.0001-0.2772,0.0719-0.3565,0.1912l-1.4263,2.1428c-0.2346,0.3517-0.3599,0.7651-0.36,1.188v2.6254
				c-0.0011,0.3406-0.1363,0.667-0.3763,0.9085l-0.7097,0.7105c-0.4037,0.4004-0.6299,0.946-0.6283,1.5145v3.9959
				c0,0.7637-1.1143,2.2877-2.2175,3.0514l-1.152,0.4037c-0.1027,0.0354-0.1624,0.1427-0.138,0.2485l0.0275,0.1252
				c0.2192,1.0717-0.4039,2.1366-1.4459,2.4702c-1.0418,0.3337-2.1678-0.1711-2.6119-1.1708
				c-0.0433-0.105-0.1612-0.1577-0.2683-0.12l-0.4783,0.1715c-0.0606,0.0212-0.1157,0.0558-0.1612,0.1012l-1.2857,1.2857
				c-0.1198,0.1229-0.1547,0.3053-0.0889,0.4637c0.0659,0.1584,0.2198,0.2623,0.3914,0.264h13.7146
				c0.2366,0,0.4285-0.1919,0.4285-0.4285V20.1857H39.4717z"/>
			<path fill="#FFFFFF" d="M29.4644,38.5831c0.6929-0.1541,1.13-0.8404,0.9763-1.5334l-0.4835-2.1908
				c-0.3346-1.5158-1.547-2.6822-3.0746-2.958l-1.0037-0.1825c-0.0677-0.0118-0.1255-0.0554-0.1554-0.1174
				c-0.0298-0.0619-0.0277-0.1345,0.0054-0.1946l1.0157-1.8857c0.0335-0.0619,0.0952-0.1036,0.1651-0.1112
				c0.0701-0.0077,0.1393,0.0194,0.1854,0.0727c0.7307,0.8983,1.8276,1.4192,2.9855,1.4177h2.1052
				c0.71,0,1.2857-0.5756,1.2857-1.2857s-0.5756-1.2857-1.2857-1.2857h-2.1052c-0.4153-0.0011-0.8048-0.2011-1.0475-0.5383
				c-0.0625-0.0857,0.0128,0-1.4717-1.6174c-0.2809-0.3065-0.6929-0.4582-1.1056-0.4072c-0.4127,0.0511-0.7752,0.2986-0.9731,0.6643
				l-2.9915,5.5594c-0.1061,0.1913-0.1621,0.4062-0.1628,0.6248v2.6965l-1.5788,3.1525c-0.3174,0.6353-0.0598,1.4076,0.5755,1.725
				c0.6353,0.3174,1.4076,0.0598,1.725-0.5755l1.7143-3.4234c0.0892-0.1787,0.1355-0.3755,0.1355-0.5752V34.157l1.5188,0.276
				c0.5105,0.0913,0.9161,0.4805,1.0286,0.9865l0.4868,2.19C28.0896,38.2997,28.7734,38.7348,29.4644,38.5831z"/>
			<circle fill="#FFFFFF" cx="28.7573" cy="22.7572" r="2.1428"/>
		</g>
	</g>
</g>
</svg>
