<?xml version="1.0" encoding="utf-8"?>
<!-- Generator: Adobe Illustrator 23.0.1, SVG Export Plug-In . SVG Version: 6.00 Build 0)  -->
<svg version="1.1" id="Layer_1" xmlns="http://www.w3.org/2000/svg" xmlns:xlink="http://www.w3.org/1999/xlink" x="0px" y="0px"
	 width="60px" height="60px" viewBox="0 0 60 60" enable-background="new 0 0 60 60" xml:space="preserve">
<g>
	<rect fill="#9FE9A7" width="60" height="60"/>
	<g id="Logos__x2F__Developer-Communities__x2F__developer-community-github-1">
		<g id="Group_162">
			<g id="Bold_162">
				<path id="Shape_327" fill="#FFFFFF" d="M30.0234,16.2848c-6.6323,0-12.2812,5.0224-13.3219,11.8473
					c-1.0406,6.8252,2.8362,13.4163,9.1418,15.5584h0.3254c0.322,0.0235,0.6367-0.1051,0.8639-0.3395
					c0.2282-0.234,0.3476-0.5619,0.3277-0.9014v-0.2459c0-0.199,0-0.4682,0-1.2758c-0.0222-0.1523-0.1031-0.2927-0.2248-0.3864
					c-0.1322-0.1171-0.3055-0.1521-0.4717-0.1171c-3.0117,0.6791-3.6521-1.2877-3.6977-1.4166
					c-0.3769-1.0418-1.0511-1.9315-1.9326-2.5637c-0.0527-0.0468-0.1088-0.0937-0.1686-0.1289
					c0.1312-0.0701,0.2797-0.1052,0.4272-0.0817c0.5748,0.0817,1.0652,0.4799,1.2923,1.0301
					c0.9036,1.6392,2.8899,2.2362,4.4948,1.3581c0.1674-0.0821,0.2891-0.2344,0.3254-0.4216
					c0.0433-0.5385,0.2657-1.0535,0.6298-1.44c0.1651-0.1523,0.2282-0.3864,0.1639-0.6088
					c-0.0655-0.2223-0.2482-0.3864-0.467-0.4098c-2.6641-0.3161-5.3833-1.2877-5.3833-6.0757
					c-0.0222-1.206,0.4003-2.3649,1.1798-3.2546c0.1463-0.1638,0.1861-0.4095,0.1019-0.6204
					c-0.3125-0.9129-0.309-1.9081,0.0106-2.8095c1.0382,0.1872,2.0122,0.6557,2.8315,1.3462
					c0.1381,0.1055,0.3114,0.1289,0.4728,0.0821c1.0031-0.2809,2.0378-0.4331,3.0785-0.4331c1.0441,0,2.0835,0.1521,3.0902,0.4331
					c0.158,0.0468,0.3265,0.0118,0.4612-0.0821c0.8206-0.6905,1.7944-1.1473,2.8315-1.3462c0.3055,0.9014,0.3055,1.885,0,2.7861
					c-0.0854,0.211-0.0457,0.4566,0.1007,0.6204c0.7726,0.878,1.1939,2.0252,1.1798,3.2193c0,4.7882-2.7308,5.7482-5.4043,6.0645
					c-0.2248,0.0234-0.4132,0.1872-0.4799,0.4095c-0.0655,0.2225,0.0035,0.4685,0.1756,0.6206
					c0.5045,0.5384,0.755,1.2878,0.6859,2.037v3.7228c-0.0118,0.3747,0.1369,0.7259,0.405,0.9718
					c0.3406,0.2693,0.7819,0.3511,1.1904,0.2224c6.2624-2.1774,10.0854-8.7685,9.0342-15.5583
					C42.2426,21.3072,36.6264,16.3082,30.0234,16.2848z"/>
			</g>
		</g>
	</g>
</g>
</svg>
