<?xml version="1.0" encoding="utf-8"?>
<!-- Generator: Adobe Illustrator 23.0.1, SVG Export Plug-In . SVG Version: 6.00 Build 0)  -->
<svg version="1.1" id="Layer_1" xmlns="http://www.w3.org/2000/svg" xmlns:xlink="http://www.w3.org/1999/xlink" x="0px" y="0px"
	 width="60px" height="60px" viewBox="0 0 60 60" enable-background="new 0 0 60 60" xml:space="preserve">
<rect fill="#9FE9A7" width="60" height="60"/>
<g>
	<g>
		<g id="Rectangle-path_107_2_">
			<path fill="#FFFFFF" d="M44.8717,47.7424h-29.744c-1.6102,0-2.8716-1.2614-2.8716-2.8718V15.1289
				c0-1.61,1.2616-2.8714,2.8716-2.8714h29.7442c1.6105,0,2.8721,1.2614,2.8721,2.8714v29.7416
				C47.7438,46.481,46.4824,47.7424,44.8717,47.7424z M15.1277,13.5433c-0.8894,0-1.5859,0.6964-1.5859,1.5858v29.7416
				c0,0.8898,0.6965,1.5862,1.5859,1.5862h29.7442c0.8898,0,1.5863-0.6964,1.5863-1.5862V15.1289
				c0-0.8893-0.6965-1.5858-1.5863-1.5858H15.1277V13.5433z"/>
		</g>
		<g>
			<path fill="#FFFFFF" d="M24.4342,32.5977c0.0101-0.1673,0.1534-0.295,0.3206-0.2854h4.4976
				c0.1673-0.0095,0.3109,0.1182,0.3215,0.2854v2.8576c-0.0106,0.167-0.1541,0.2948-0.3215,0.2854h-4.4976
				c-0.1673,0.0095-0.3104-0.1183-0.3206-0.2854C24.4342,35.4554,24.4342,32.5977,24.4342,32.5977z M32.5774,32.6216
				c0.0097-0.1799,0.163-0.3179,0.3428-0.3094h2.743c0.1799-0.0085,0.3332,0.1295,0.3428,0.3094v4.4048
				c0,0.2365-0.1919,0.4285-0.4286,0.4285h-2.5716c-0.2366,0-0.4286-0.192-0.4286-0.4285
				C32.5774,37.0264,32.5774,32.6216,32.5774,32.6216z M38.0822,29.9561c-0.9934-0.0145-1.9223-0.4946-2.5098-1.2952
				c-0.0404-0.054-0.1039-0.0858-0.1715-0.0858c-0.0674,0-0.1309,0.0318-0.1715,0.0858c-0.5774,0.8125-1.5128,1.2952-2.5098,1.2952
				s-1.9324-0.4825-2.5098-1.2952c-0.0404-0.054-0.1039-0.0858-0.1715-0.0858c-0.0674,0-0.1309,0.0318-0.1715,0.0858
				c-0.5863,0.7988-1.5127,1.2787-2.5038,1.2952c-0.9936-0.0145-1.9229-0.4938-2.5106-1.2952
				c-0.0404-0.054-0.1039-0.0858-0.1715-0.0858c-0.0676,0-0.1309,0.0318-0.1715,0.0858c-0.5869,0.7997-1.5143,1.2787-2.5064,1.2952
				c-0.1099,0-0.2198-0.007-0.3292-0.0188c-0.0607-0.007-0.1217,0.0119-0.1673,0.053c-0.0456,0.0403-0.0715,0.0995-0.071,0.1603
				v7.7339c0,0.7097,0.5756,1.2857,1.2858,1.2857h14.5722c0.71,0,1.2858-0.576,1.2858-1.2857v-7.7279
				c-0.0002-0.0601-0.0257-0.1175-0.0703-0.1586c-0.0443-0.0403-0.1038-0.0607-0.1637-0.0548
				C38.2579,29.951,38.1706,29.9561,38.0822,29.9561z"/>
			<path fill="#FFFFFF" d="M38.0822,28.6705c0.9197-0.0601,1.6934-0.7115,1.9098-1.607c0.1177-0.3832,0.1138-0.7938-0.0112-1.1742
				l-1.543-4.6884c-0.0322-0.1475-0.1505-0.2606-0.2992-0.2854H21.9431c-0.1487,0.0247-0.267,0.1379-0.2992,0.2854l-1.5403,4.6866
				c-0.1242,0.3815-0.1278,0.792-0.0103,1.1752c0.216,0.8964,0.9899,1.5479,1.9098,1.608c1.2382-0.1295,2.145-1.2258,2.0393-2.466
				c0-0.3548,0.2879-0.6428,0.6428-0.6428s0.6428,0.288,0.6428,0.6428c-0.1058,1.2386,0.7986,2.3347,2.035,2.466
				c1.2371-0.1303,2.1425-1.2266,2.0366-2.466c0-0.3548,0.2879-0.6428,0.6428-0.6428c0.3551,0,0.6428,0.288,0.6428,0.6428
				c-0.1057,1.2394,0.8,2.3357,2.0375,2.466c1.2364-0.1313,2.1404-1.2274,2.0341-2.466c0-0.3548,0.2879-0.6428,0.6428-0.6428
				c0.355,0,0.6428,0.288,0.6428,0.6428C35.9377,27.4447,36.8443,28.541,38.0822,28.6705z"/>
		</g>
	</g>
</g>
</svg>
