<?xml version="1.0" encoding="utf-8"?>
<!-- Generator: Adobe Illustrator 25.3.1, SVG Export Plug-In . SVG Version: 6.00 Build 0)  -->
<svg version="1.1" id="Layer_1" xmlns="http://www.w3.org/2000/svg" xmlns:xlink="http://www.w3.org/1999/xlink" x="0px" y="0px"
	 width="60px" height="60px" viewBox="0 0 60 60" style="enable-background:new 0 0 60 60;" xml:space="preserve">
<style type="text/css">
	.st0{fill:#9FE9A7;}
	.st1{fill:#FFFFFF;}
</style>
<rect class="st0" width="60" height="60"/>
<g>
	<g>
		<path class="st1" d="M43.7,48.5H16.3c-2.6,0-4.8-2.1-4.8-4.8V16.3c0-2.6,2.1-4.8,4.8-4.8h27.5c2.6,0,4.8,2.1,4.8,4.8v27.5
			C48.5,46.4,46.4,48.5,43.7,48.5z M16.3,12.5c-2.1,0-3.8,1.7-3.8,3.8v27.5c0,2.1,1.7,3.8,3.8,3.8h27.5c2.1,0,3.8-1.7,3.8-3.8V16.3
			c0-2.1-1.7-3.8-3.8-3.8H16.3z"/>
	</g>
	<path class="st1" d="M41.8,26.5c0,0-0.3,5.8-5.5,5.4C36.4,31.9,35.9,27,41.8,26.5z"/>
	<path class="st1" d="M37.8,34.2c0.7-0.7,1.6-1.1,2.6-1.1c2,0,3.7,1.7,3.7,3.7c0,0.1,0,0.1,0,0.2l0,0c-0.1,0.8-0.3,1.8-0.9,3
		c0,0-1,2-1.9,2.9l0,0.2c-0.5,0.5-1,0.7-1.6,0.7c-0.8,0-1.5-0.3-1.8-0.9l0,0c-0.5,0.6-1.1,0.9-1.8,0.9c-0.7,0-1.2-0.2-1.6-0.7
		l-0.1-0.1c-1-0.9-2.1-2.9-2.1-2.9c-0.6-1.2-0.9-2.2-0.9-3l0,0c0-0.1,0-0.1,0-0.2c0-2,1.7-3.7,3.7-3.7C36.2,33,37.1,33.5,37.8,34.2"
		/>
	<rect x="20.9" y="16.2" class="st1" width="4.6" height="1.7"/>
	<path class="st1" d="M17.6,28.4c0,0.6,0.8,1.1,1.4,0.4l1.7-2.2c0.1-0.1,0.2-0.3,0.2-0.6v-5.2c0-1.5-1.3-0.2-1.9,0.2l-1.1,1.5
		c-0.2,0.3-0.2,0.4-0.2,0.6V28.4z M16.5,23c0-0.3,0.1-0.6,0.2-0.9l2-2.6c0.6-0.7,1.2-0.7,1.2-0.7h5.3c3.3,0.3,3.3,3.5,3.3,3.5v20.3
		c0,0.6-0.4,1-1,1H17.4c-0.6,0-1-0.5-1-1L16.5,23z"/>
</g>
</svg>
