<?xml version="1.0" encoding="utf-8"?>
<!-- Generator: Adobe Illustrator 25.3.1, SVG Export Plug-In . SVG Version: 6.00 Build 0)  -->
<svg version="1.1" id="Layer_1" xmlns="http://www.w3.org/2000/svg" xmlns:xlink="http://www.w3.org/1999/xlink" x="0px" y="0px"
	 width="60px" height="60px" viewBox="0 0 60 60" style="enable-background:new 0 0 60 60;" xml:space="preserve">
<style type="text/css">
	.st0{fill:#69DD76;}
	.st1{fill:#FFFFFF;}
</style>
<g>
	<rect class="st0" width="60" height="60"/>
</g>
<g>
	<g>
		<path class="st1" d="M43.7,48.6H16.3c-2.6,0-4.8-2.1-4.8-4.8V16.2c0-2.6,2.1-4.8,4.8-4.8h27.5c1.3,0,2.5,0.5,3.4,1.5
			c0.9,0.9,1.3,2.1,1.3,3.4l0,27.5C48.5,46.4,46.3,48.6,43.7,48.6z M16.3,12.4c-2.1,0-3.8,1.7-3.8,3.8v27.5c0,2.1,1.7,3.8,3.8,3.8
			h27.4c2.1,0,3.8-1.7,3.8-3.8V16.2c0-1-0.3-1.9-1-2.6c-0.7-0.7-1.7-1.1-2.7-1.1H16.3z"/>
	</g>
	<path class="st1" d="M25.2,43l4.9-8.9l5,8.9H25.2z M39.3,43l-9.1-16.2L20.9,43H19v1.8h22V43H39.3z"/>
	<rect x="18.7" y="15.2" class="st1" width="22.7" height="1.5"/>
	<rect x="18.7" y="18.9" class="st1" width="22.7" height="1.5"/>
	<rect x="18.7" y="22.7" class="st1" width="17.5" height="1.5"/>
</g>
</svg>
