<?xml version="1.0" encoding="utf-8"?>
<!-- Generator: Adobe Illustrator 23.0.1, SVG Export Plug-In . SVG Version: 6.00 Build 0)  -->
<svg version="1.1" id="Layer_1" xmlns="http://www.w3.org/2000/svg" xmlns:xlink="http://www.w3.org/1999/xlink" x="0px" y="0px"
	 width="60px" height="60px" viewBox="0 0 60 60" enable-background="new 0 0 60 60" xml:space="preserve">
<rect fill="#9FE9A7" width="60" height="60"/>
<g>
	<g>
		<g id="Rectangle-path_107_1_">
			<path fill="#FFFFFF" d="M44.8723,47.7434h-29.745c-1.6102,0-2.8717-1.2614-2.8717-2.872V15.1282
				c0-1.6102,1.2616-2.8716,2.8717-2.8716h29.745c1.6106,0,2.8722,1.2614,2.8722,2.8716v29.7433
				C47.7445,46.482,46.4829,47.7434,44.8723,47.7434z M15.1273,13.5424c-0.8894,0-1.5859,0.6965-1.5859,1.5858v29.7433
				c0,0.8898,0.6965,1.5863,1.5859,1.5863h29.745c0.8899,0,1.5864-0.6965,1.5864-1.5863V15.1282
				c0-0.8894-0.6965-1.5858-1.5864-1.5858C44.8723,13.5424,15.1273,13.5424,15.1273,13.5424z"/>
		</g>
	</g>
</g>
<g>
	<path fill="#FFFFFF" d="M32.8438,29.5938h-7.3125c-0.4487,0-0.8125-0.3638-0.8125-0.8125c0-0.4488,0.3638-0.8125,0.8125-0.8125
		h7.3125c0.4487,0,0.8125,0.3637,0.8125,0.8125C33.6562,29.23,33.2925,29.5938,32.8438,29.5938z M32.8438,32.8438h-7.3125
		c-0.4487,0-0.8125-0.3638-0.8125-0.8125c0-0.4488,0.3638-0.8125,0.8125-0.8125h7.3125c0.4487,0,0.8125,0.3637,0.8125,0.8125
		C33.6562,32.48,33.2925,32.8438,32.8438,32.8438z M29.1875,36.0938h-3.6562c-0.4487,0-0.8125-0.3638-0.8125-0.8125
		c0-0.4488,0.3638-0.8125,0.8125-0.8125h3.6562c0.4487,0,0.8125,0.3637,0.8125,0.8125C30,35.73,29.6362,36.0938,29.1875,36.0938z
		 M37.6489,24.2426l-3.5165-3.5165c-0.3047-0.3049-0.7179-0.476-1.1489-0.4761H23.5c-0.8975,0-1.625,0.7274-1.625,1.625v16.25
		c0,0.8975,0.7275,1.625,1.625,1.625h13c0.8975,0,1.625-0.7275,1.625-1.625V25.3915
		C38.1249,24.9606,37.9536,24.5473,37.6489,24.2426z"/>
</g>
</svg>
