<?xml version="1.0" encoding="utf-8"?>
<!-- Generator: Adobe Illustrator 23.0.1, SVG Export Plug-In . SVG Version: 6.00 Build 0)  -->
<svg version="1.1" id="Layer_1" xmlns="http://www.w3.org/2000/svg" xmlns:xlink="http://www.w3.org/1999/xlink" x="0px" y="0px"
	 width="60px" height="60px" viewBox="0 0 60 60" enable-background="new 0 0 60 60" xml:space="preserve">
<rect fill="#9FE9A7" width="60" height="60"/>
<g>
	<g>
		<g id="Rectangle-path_107_1_">
			<path fill="#FFFFFF" d="M44.8723,47.7434h-29.745c-1.6102,0-2.8717-1.2614-2.8717-2.872V15.1282
				c0-1.6102,1.2616-2.8716,2.8717-2.8716h29.745c1.6106,0,2.8722,1.2614,2.8722,2.8716v29.7433
				C47.7445,46.482,46.4829,47.7434,44.8723,47.7434z M15.1273,13.5424c-0.8894,0-1.5859,0.6965-1.5859,1.5858v29.7433
				c0,0.8898,0.6965,1.5863,1.5859,1.5863h29.745c0.8899,0,1.5864-0.6965,1.5864-1.5863V15.1282
				c0-0.8894-0.6965-1.5858-1.5864-1.5858C44.8723,13.5424,15.1273,13.5424,15.1273,13.5424z"/>
		</g>
	</g>
</g>
<g>
	<path fill="#FFFFFF" d="M30.7504,23h-6c-0.4142,0-0.75,0.3358-0.75,0.75s0.3358,0.75,0.75,0.75h6c0.4142,0,0.75-0.3358,0.75-0.75
		S31.1645,23,30.7504,23z"/>
	<path fill="#FFFFFF" d="M31.5004,27.25c0-0.4142-0.3358-0.75-0.75-0.75h-8c-0.4142,0-0.75,0.3358-0.75,0.75s0.3358,0.75,0.75,0.75
		h8C31.1645,28,31.5004,27.6642,31.5004,27.25z"/>
	<path fill="#FFFFFF" d="M22.7504,30c-0.4142,0-0.75,0.3358-0.75,0.75s0.3358,0.75,0.75,0.75h5.5c0.4142,0,0.75-0.3358,0.75-0.75
		S28.6645,30,28.2504,30H22.7504z"/>
	<path fill="#FFFFFF" d="M29.3004,35.6551c-0.0389-0.0934-0.1299-0.1545-0.231-0.1551h-8.569c-0.2761,0-0.5-0.2238-0.5-0.5V20.5
		c0-0.2761,0.2239-0.5,0.5-0.5h13c0.2761,0,0.5,0.2239,0.5,0.5v10.07c0.0002,0.1011,0.0613,0.1921,0.1547,0.2306
		c0.0935,0.0385,0.2009,0.0171,0.2723-0.0546l1.28-1.28c0.1875-0.1875,0.2929-0.4418,0.293-0.707V20c0-1.1046-0.8954-2-2-2h-14
		c-1.1046,0-2,0.8954-2,2v15.5c0,1.1046,0.8954,2,2,2h7.868c0.2196,0,0.4135-0.1431,0.478-0.353
		c0.0952-0.3107,0.2672-0.5923,0.5-0.819l0.4-0.4C29.318,35.8564,29.3394,35.7485,29.3004,35.6551z"/>
	<path fill="#FFFFFF" d="M30.0624,38.131c-0.0655-0.0644-0.161-0.0881-0.249-0.0614c-0.088,0.0267-0.1544,0.0993-0.173,0.1894
		l-0.628,3.1411c-0.03,0.1471,0.0076,0.2999,0.1026,0.4162C29.2099,41.9327,29.3521,42,29.5024,42
		c0.0336,0.0003,0.0671-0.0031,0.1-0.01l3.143-0.6289c0.0903-0.0184,0.1633-0.0849,0.1898-0.1731
		c0.0266-0.0882,0.0024-0.1839-0.0628-0.2489L30.0624,38.131z"/>
	<path fill="#FFFFFF" d="M41.2284,29.765c-1.0226-1.0197-2.6774-1.0197-3.7,0l-6.5,6.5c-0.1952,0.1952-0.1952,0.5118,0,0.707l3,3
		c0.1952,0.1952,0.5118,0.1952,0.707,0l6.5-6.5c0.4907-0.4925,0.7657-1.1596,0.7643-1.8548
		C41.9984,30.9218,41.7209,30.2556,41.2284,29.765z"/>
</g>
</svg>
