<?xml version="1.0" encoding="utf-8"?>
<!-- Generator: Adobe Illustrator 23.0.1, SVG Export Plug-In . SVG Version: 6.00 Build 0)  -->
<svg version="1.1" id="Layer_1" xmlns="http://www.w3.org/2000/svg" xmlns:xlink="http://www.w3.org/1999/xlink" x="0px" y="0px"
	 width="60px" height="60px" viewBox="0 0 60 60" enable-background="new 0 0 60 60" xml:space="preserve">
<rect fill="#9FE9A7" width="60" height="60"/>
<g>
	<g>
		<g id="Rectangle-path_107_1_">
			<path fill="#FFFFFF" d="M44.8717,47.7424h-29.744c-1.6102,0-2.8716-1.2614-2.8716-2.8718V15.1289
				c0-1.61,1.2616-2.8714,2.8716-2.8714h29.7442c1.6105,0,2.8721,1.2614,2.8721,2.8714v29.7416
				C47.7438,46.481,46.4824,47.7424,44.8717,47.7424z M15.1277,13.5433c-0.8894,0-1.5859,0.6964-1.5859,1.5858v29.7416
				c0,0.8898,0.6965,1.5862,1.5859,1.5862h29.7442c0.8898,0,1.5863-0.6964,1.5863-1.5862V15.1289
				c0-0.8893-0.6965-1.5858-1.5863-1.5858H15.1277V13.5433z"/>
		</g>
		<g>
			<g>
				<g>
					<path id="SVGID_2_" fill="#FFFFFF" d="M32.5112,40.328h3.7031c0.6817,0,1.2343-0.5756,1.2343-1.2857V31.258
						c0.0001-0.0769,0.0397-0.1477,0.1038-0.1859c0.0641-0.038,0.1429-0.0376,0.2064,0.0016l0.9168,0.564
						c0.3913,0.241,0.896,0.1058,1.1274-0.3017c0.2312-0.4075,0.1015-0.9334-0.2897-1.1742l-5.2549-3.2347
						c-0.0625-0.0385-0.1009-0.1086-0.1013-0.1843v-6.1284c0-0.4734-0.3684-0.8572-0.8228-0.8572s-0.8228,0.3838-0.8228,0.8572
						v4.8624c-0.0001,0.0769-0.0397,0.1477-0.1038,0.1859c-0.0641,0.038-0.1429,0.0376-0.2064-0.0016l-1.7396-1.0705
						c-0.2582-0.1591-0.5794-0.1591-0.8376,0l-9.0518,5.5712c-0.2531,0.1559-0.4073,0.4405-0.4042,0.7468
						c0.003,0.3062,0.1627,0.5875,0.4188,0.738c0.2561,0.1505,0.5699,0.147,0.823-0.0089l0.9168-0.5665
						c0.064-0.0392,0.1433-0.0396,0.2075-0.001c0.0642,0.0388,0.1034,0.1105,0.1027,0.1878v7.7843
						c0,0.71,0.5526,1.2857,1.2343,1.2857h3.7031c0.4544,0,0.8228-0.3838,0.8228-0.8572v-5.1427
						c0-0.2366,0.1842-0.4285,0.4115-0.4285h2.4686c0.2273,0,0.4115,0.1919,0.4115,0.4285v5.1427
						C31.6883,39.9443,32.0567,40.328,32.5112,40.328z"/>
				</g>
				<path fill="#FFFFFF" d="M32.5112,40.328h3.7031c0.6817,0,1.2343-0.5756,1.2343-1.2857V31.258
					c0.0001-0.0769,0.0397-0.1477,0.1038-0.1859c0.0641-0.038,0.1429-0.0376,0.2064,0.0016l0.9168,0.564
					c0.3913,0.241,0.896,0.1058,1.1274-0.3017c0.2312-0.4075,0.1015-0.9334-0.2897-1.1742l-5.2549-3.2347
					c-0.0625-0.0385-0.1009-0.1086-0.1013-0.1843v-6.1284c0-0.4734-0.3684-0.8572-0.8228-0.8572s-0.8228,0.3838-0.8228,0.8572
					v4.8624c-0.0001,0.0769-0.0397,0.1477-0.1038,0.1859c-0.0641,0.038-0.1429,0.0376-0.2064-0.0016l-1.7396-1.0705
					c-0.2582-0.1591-0.5794-0.1591-0.8376,0l-9.0518,5.5712c-0.2531,0.1559-0.4073,0.4405-0.4042,0.7468
					c0.003,0.3062,0.1627,0.5875,0.4188,0.738c0.2561,0.1505,0.5699,0.147,0.823-0.0089l0.9168-0.5665
					c0.064-0.0392,0.1433-0.0396,0.2075-0.001c0.0642,0.0388,0.1034,0.1105,0.1027,0.1878v7.7843
					c0,0.71,0.5526,1.2857,1.2343,1.2857h3.7031c0.4544,0,0.8228-0.3838,0.8228-0.8572v-5.1427
					c0-0.2366,0.1842-0.4285,0.4115-0.4285h2.4686c0.2273,0,0.4115,0.1919,0.4115,0.4285v5.1427
					C31.6883,39.9443,32.0567,40.328,32.5112,40.328z"/>
			</g>
			<g>
				<g>
					<path id="SVGID_3_" fill="#FFFFFF" d="M39.9173,22.1144c0-0.2366-0.1842-0.4285-0.4115-0.4285h-1.584
						c-0.0796,0-0.1519-0.0478-0.186-0.1225c-0.2035-0.4469-0.6352-0.7325-1.11-0.7345h-1.2343
						c-0.2273,0-0.4115,0.1919-0.4115,0.4285v3.4284c0,0.2366,0.1842,0.4285,0.4115,0.4285h1.4606
						c0.0978,0,0.182,0.0716,0.2016,0.1715c0.0782,0.3991,0.4153,0.6858,0.8064,0.6857h1.6458c0.2273,0,0.4115-0.1919,0.4115-0.4285
						v-3.4285L39.9173,22.1144L39.9173,22.1144z"/>
				</g>
				<path fill="#FFFFFF" d="M39.9173,22.1144c0-0.2366-0.1842-0.4285-0.4115-0.4285h-1.584c-0.0796,0-0.1519-0.0478-0.186-0.1225
					c-0.2035-0.4469-0.6352-0.7325-1.11-0.7345h-1.2343c-0.2273,0-0.4115,0.1919-0.4115,0.4285v3.4284
					c0,0.2366,0.1842,0.4285,0.4115,0.4285h1.4606c0.0978,0,0.182,0.0716,0.2016,0.1715c0.0782,0.3991,0.4153,0.6858,0.8064,0.6857
					h1.6458c0.2273,0,0.4115-0.1919,0.4115-0.4285v-3.4285L39.9173,22.1144L39.9173,22.1144z"/>
			</g>
		</g>
	</g>
</g>
</svg>
