<?xml version="1.0" encoding="utf-8"?>
<!-- Generator: Adobe Illustrator 25.3.1, SVG Export Plug-In . SVG Version: 6.00 Build 0)  -->
<svg version="1.1" id="Layer_1" xmlns="http://www.w3.org/2000/svg" xmlns:xlink="http://www.w3.org/1999/xlink" x="0px" y="0px"
	 width="60px" height="60px" viewBox="0 0 60 60" style="enable-background:new 0 0 60 60;" xml:space="preserve">
<style type="text/css">
	.st0{fill:#FFFFFF;}
	.st1{fill:#69DD76;}
</style>
<g>
	<rect class="st0" width="60" height="60"/>
</g>
<g>
	<g>
		<path class="st1" d="M43.7,48.5H16.3c-2.6,0-4.8-2.1-4.8-4.8V16.3c0-2.6,2.1-4.8,4.8-4.8h27.5c2.6,0,4.8,2.1,4.8,4.8v27.5
			C48.5,46.4,46.4,48.5,43.7,48.5z M16.3,12.5c-2.1,0-3.8,1.7-3.8,3.8v27.5c0,2.1,1.7,3.8,3.8,3.8h27.5c2.1,0,3.8-1.7,3.8-3.8V16.3
			c0-2.1-1.7-3.8-3.8-3.8H16.3z"/>
	</g>
	<path class="st1" d="M32.6,27.1v-6.2h2.1c0.9,0,1,0.6,1.1,0.7c0.5,0.3,0.7,0.6,1.1,0.6h2.4v-5.3H37c-0.4,0-0.7-0.2-1-0.6
		c-0.1-0.1-0.2-0.7-1.1-0.7h-3.3v10.7L30,25.4l-13.2,8.4h3v10.2h7.4V36h5.2v8h7.4V33.8h3L32.6,27.1z"/>
</g>
</svg>
