<?xml version="1.0" encoding="utf-8"?>
<!-- Generator: Adobe Illustrator 23.0.1, SVG Export Plug-In . SVG Version: 6.00 Build 0)  -->
<svg version="1.1" id="Layer_1" xmlns="http://www.w3.org/2000/svg" xmlns:xlink="http://www.w3.org/1999/xlink" x="0px" y="0px"
	 width="60px" height="60px" viewBox="0 0 60 60" enable-background="new 0 0 60 60" xml:space="preserve">
<rect fill="#9FE9A7" width="60" height="60"/>
<g>
	<g>
		<g id="Rectangle-path_107_1_">
			<path fill="#FFFFFF" d="M44.8723,47.7434h-29.745c-1.6102,0-2.8717-1.2614-2.8717-2.872V15.1282
				c0-1.6102,1.2616-2.8716,2.8717-2.8716h29.745c1.6106,0,2.8722,1.2614,2.8722,2.8716v29.7433
				C47.7445,46.482,46.4829,47.7434,44.8723,47.7434z M15.1273,13.5424c-0.8894,0-1.5859,0.6965-1.5859,1.5858v29.7433
				c0,0.8898,0.6965,1.5863,1.5859,1.5863h29.745c0.8899,0,1.5864-0.6965,1.5864-1.5863V15.1282
				c0-0.8894-0.6965-1.5858-1.5864-1.5858C44.8723,13.5424,15.1273,13.5424,15.1273,13.5424z"/>
		</g>
		<g>
			<path fill="#FFFFFF" d="M26.5538,32.3117c0.3503,0,0.6343,0.2842,0.6343,0.6343c0.0013,1.5758,1.2786,2.8531,2.8546,2.8544
				c0.3503,0,0.6343,0.2842,0.6343,0.6343c0,0.3502-0.284,0.6343-0.6343,0.6343c-2.276-0.0024-4.1206-1.847-4.1233-4.1231
				C25.9193,32.5958,26.2035,32.3117,26.5538,32.3117z M30.0427,39.9234c3.852-0.0037,6.9737-3.1259,6.9779-6.9775
				c0-3.0028-4.141-9.5693-5.921-12.2524c-0.2482-0.335-0.6402-0.5315-1.0568-0.5315c-0.4166,0-0.8087,0.1966-1.0568,0.5315
				c-1.7813,2.683-5.921,9.2484-5.921,12.2524C23.069,36.7975,26.1907,39.9197,30.0427,39.9234z"/>
		</g>
	</g>
</g>
</svg>
