<?xml version="1.0" encoding="utf-8"?>
<!-- Generator: Adobe Illustrator 23.0.1, SVG Export Plug-In . SVG Version: 6.00 Build 0)  -->
<svg version="1.1" id="Icons" xmlns="http://www.w3.org/2000/svg" xmlns:xlink="http://www.w3.org/1999/xlink" x="0px" y="0px"
	 width="49.68px" height="49.68px" viewBox="0 0 49.68 49.68" enable-background="new 0 0 49.68 49.68" xml:space="preserve">
<rect x="-0.1584" y="-0.16" fill="#69DD76" width="49.9968" height="50"/>
<path fill="#FFFFFF" d="M24.84,9.84c-8.2507,0-15.0012,6.75-15.0012,15s6.7505,15,15.0012,15s15.0012-6.75,15.0012-15
	S33.0907,9.84,24.84,9.84z M24.84,38.34c-5.2504,0-9.8258-3-12.076-7.425l1.2001-1.95l1.5001-1.05
	c0.075-0.075,0.15-0.15,0.225-0.225l5.1754-8.625c0.7501-0.075,1.5001-0.15,2.2502-0.225c0.375,0.225,0.8251,0.45,1.2001,0.675
	c1.1251,0.6,2.2502,1.275,3.2253,2.025c1.0501,0.825,1.9502,1.875,2.4752,3.15c0.9001,2.025,2.0252,3.6,3.3753,4.65
	c0.6751,0.525,1.3501,1.05,2.0252,1.575c0.375,0.3,0.6751,0.525,1.0501,0.825C34.0657,35.715,29.7904,38.34,24.84,38.34z
	 M24.84,11.34c7.4256,0,13.5011,6.075,13.5011,13.5c0,0.525-0.075,1.125-0.075,1.65c-1.0501-0.75-1.8001-1.875-2.4752-2.925
	c-1.2751-1.875-2.4002-3.3-4.1253-4.35c-3.0002-1.725-6.7505-2.325-11.2509-1.575c-0.225,0-0.375,0.15-0.525,0.375l-5.2504,8.775
	l-1.5001,1.05c-0.225,0-0.3,0.075-0.375,0.225L12.089,29.19c-0.45-1.35-0.7501-2.85-0.7501-4.35
	C11.3389,17.415,17.4144,11.34,24.84,11.34z M37.966,28.065c-0.225,0.825-0.45,1.575-0.8251,2.325
	c-0.3-0.225-0.525-0.45-0.8251-0.675c-0.6751-0.525-1.3501-0.975-1.9502-1.5c-1.1251-0.975-2.1002-2.325-2.9252-4.125
	c-0.6751-1.5-1.6501-2.775-2.9252-3.675c-0.6751-0.525-1.4251-0.975-2.1002-1.35c1.6501,0.225,3.1503,0.75,4.5004,1.5
	c1.5751,0.9,2.5502,2.1,3.6753,3.9C35.3408,25.665,36.3159,27.165,37.966,28.065z"/>
</svg>
