<?xml version="1.0" encoding="utf-8"?>
<!-- Generator: Adobe Illustrator 25.3.1, SVG Export Plug-In . SVG Version: 6.00 Build 0)  -->
<svg version="1.1" id="Layer_1" xmlns="http://www.w3.org/2000/svg" xmlns:xlink="http://www.w3.org/1999/xlink" x="0px" y="0px"
	 width="32px" height="32px" viewBox="0 0 32 32" style="enable-background:new 0 0 32 32;" xml:space="preserve">
<style type="text/css">
	.st0{fill:#414042;}
	.st1{fill:#FFFFFF;}
</style>
<g>
	<path class="st0" d="M28.2,0H3.8C1.7,0,0,1.7,0,3.8v24.4C0,30.3,1.7,32,3.8,32h24.4c2.1,0,3.8-1.7,3.8-3.8V3.8
		C32,1.7,30.3,0,28.2,0z"/>
	<path class="st1" d="M16,20.6c-0.3,0.1-0.6,0.2-0.9,0.2c-0.3,0-0.7,0-1-0.1l-3.4,7.9c-0.3,0.7-1.2,1-1.9,0.6C8,28.6,7.7,27.7,8,27
		l4.2-9.7h5.4v-0.9l2.7-1.3c0.7-0.3,1.6,0.2,1.8,1l1.3,5.4c0.2,0.8-0.3,1.5-1,1.7c-0.8,0.2-1.5-0.3-1.7-1l-0.8-3.4L16,20.6z"/>
	<path class="st1" d="M18.5,15c5.9-2.9,8.2-12.9,8.2-13.8h-0.8c-0.3,2.1-2.8,10.4-7.4,12.9V15z"/>
	<path class="st1" d="M7.6,12.8c0.3,0.5,0.9,0.7,1.5,0.5l3.1-1.2v4.3h5.4v-5l4.8-7.7C22.7,3.1,22.6,2.4,22,2
		c-0.6-0.4-1.3-0.2-1.6,0.4l-4.1,6.6l-2.5,0c-0.2,0-0.3,0-0.5,0.1l-4.3,1.7L6.9,7.4C6.5,6.8,5.8,6.7,5.2,7C4.7,7.4,4.5,8.1,4.9,8.7
		L7.6,12.8z"/>
	<path class="st1" d="M14.5,8.5c1.2,0,2.1-1,2.1-2.1s-1-2.1-2.1-2.1c-1.2,0-2.1,1-2.1,2.1S13.3,8.5,14.5,8.5z"/>
	<polygon class="st1" points="17.6,30.4 17.6,20.7 16.7,21.2 16.7,30.4 	"/>
</g>
</svg>
