<?xml version="1.0" encoding="utf-8"?>
<!-- Generator: Adobe Illustrator 25.3.1, SVG Export Plug-In . SVG Version: 6.00 Build 0)  -->
<svg version="1.1" id="Layer_1" xmlns="http://www.w3.org/2000/svg" xmlns:xlink="http://www.w3.org/1999/xlink" x="0px" y="0px"
	 width="32px" height="32px" viewBox="0 0 32 32" style="enable-background:new 0 0 32 32;" xml:space="preserve">
<style type="text/css">
	.st0{fill:#414042;}
	.st1{fill:#FFFFFF;}
</style>
<g>
	<path class="st0" d="M28.2,0H3.8C1.7,0,0,1.7,0,3.8v24.4C0,30.3,1.7,32,3.8,32h24.4c2.1,0,3.8-1.7,3.8-3.8V3.8
		C32,1.7,30.3,0,28.2,0z"/>
	<path class="st1" d="M26.5,12.9c0,0-0.3,5.2-4.9,4.8C21.7,17.7,21.2,13.3,26.5,12.9z"/>
	<path class="st1" d="M22.9,19.7c0.6-0.6,1.4-1,2.3-1c1.8,0,3.3,1.5,3.3,3.3c0,0.1,0,0.1,0,0.2h0c-0.1,0.7-0.3,1.6-0.8,2.7
		c0,0-0.9,1.8-1.7,2.6L26,27.7c-0.4,0.4-0.9,0.6-1.4,0.6c-0.7,0-1.3-0.3-1.6-0.8h0c-0.4,0.5-1,0.8-1.6,0.8c-0.6,0-1.1-0.2-1.4-0.6
		l-0.1-0.1C19,26.8,18,25,18,25c-0.5-1.1-0.8-2-0.8-2.7h0c0-0.1,0-0.1,0-0.2c0-1.8,1.5-3.3,3.3-3.3C21.5,18.7,22.3,19.1,22.9,19.7"
		/>
	<rect x="7.9" y="3.7" class="st1" width="4.1" height="1.5"/>
	<path class="st1" d="M5,14.6c0,0.5,0.7,1,1.2,0.4l1.5-2c0.1-0.1,0.2-0.3,0.2-0.5V7.9c0-1.3-1.2-0.2-1.7,0.2l-1,1.3
		C5,9.7,5,9.8,5,9.9V14.6z M4,9.8c0-0.3,0.1-0.5,0.2-0.8l1.8-2.3c0.5-0.6,1.1-0.6,1.1-0.6h4.7c2.9,0.3,2.9,3.1,2.9,3.1v18
		c0,0.5-0.4,0.9-0.9,0.9h-9c-0.5,0-0.9-0.4-0.9-0.9L4,9.8z"/>
</g>
</svg>
