<?xml version="1.0" encoding="utf-8"?>
<!-- Generator: Adobe Illustrator 25.3.1, SVG Export Plug-In . SVG Version: 6.00 Build 0)  -->
<svg version="1.1" id="Layer_1" xmlns="http://www.w3.org/2000/svg" xmlns:xlink="http://www.w3.org/1999/xlink" x="0px" y="0px"
	 width="32px" height="32px" viewBox="0 0 32 32" style="enable-background:new 0 0 32 32;" xml:space="preserve">
<style type="text/css">
	.st0{fill:#414042;}
	.st1{fill:#FFFFFF;}
</style>
<g>
	<path class="st0" d="M28.2,0H3.8C1.7,0,0,1.7,0,3.8v24.4C0,30.3,1.7,32,3.8,32h24.3c2.1,0,3.8-1.7,3.8-3.8V3.8
		C32,1.7,30.3,0,28.2,0z"/>
	<path class="st1" d="M11.7,27.5l4.3-7.9l4.4,7.9H11.7z M24.2,27.5l-8.1-14.4L7.9,27.5H6.2v1.6h19.5v-1.6H24.2z"/>
	<rect x="5.9" y="2.9" class="st1" width="20.1" height="1.3"/>
	<rect x="5.9" y="6.2" class="st1" width="20.1" height="1.3"/>
	<rect x="5.9" y="9.5" class="st1" width="15.5" height="1.3"/>
</g>
</svg>
