<?xml version="1.0" encoding="utf-8"?>
<!-- Generator: Adobe Illustrator 25.3.1, SVG Export Plug-In . SVG Version: 6.00 Build 0)  -->
<svg version="1.1" id="Layer_1" xmlns="http://www.w3.org/2000/svg" xmlns:xlink="http://www.w3.org/1999/xlink" x="0px" y="0px"
	 width="32px" height="32px" viewBox="0 0 32 32" style="enable-background:new 0 0 32 32;" xml:space="preserve">
<style type="text/css">
	.st0{fill:#414042;}
	.st1{fill:#FFFFFF;}
</style>
<g>
	<path class="st0" d="M28.2,0H3.8C1.7,0,0,1.7,0,3.8v24.4C0,30.3,1.7,32,3.8,32h24.4c2.1,0,3.8-1.7,3.8-3.8V3.8
		C32,1.7,30.3,0,28.2,0z"/>
	<rect x="15.3" y="5" class="st1" width="1.7" height="21.4"/>
	<path class="st1" d="M9.3,8.9c1.2,0,2.1,1,2.3,1.5l1.5,4.9c0.3,1-1,1.5-1.4,0.5l-1.3-4.5H9.6l2.2,8H9.7v6.2c0,1.1-1.6,1.1-1.6,0
		v-6.3H7.3v6.3c0,1.1-1.6,1.1-1.6,0v-6.2H3.5l2.2-8H5l-1.3,4.5c-0.3,1-1.7,0.6-1.4-0.5l1.5-4.9c0.2-0.6,0.9-1.5,2.1-1.5H9.3z"/>
	<path class="st1" d="M7.7,8.6c1,0,1.7-0.8,1.7-1.7c0-1-0.8-1.7-1.7-1.7S5.9,5.9,5.9,6.8C5.9,7.8,6.7,8.6,7.7,8.6z"/>
	<path class="st1" d="M24.5,8.5c1,0,1.7-0.8,1.7-1.7c0-1-0.8-1.7-1.7-1.7c-1,0-1.7,0.8-1.7,1.7C22.8,7.8,23.6,8.5,24.5,8.5z"/>
	<path class="st1" d="M22.2,25.4c0,0.5,0.4,1,1,1c0.5,0,1-0.4,1-1v-8.2h0.8v8.2c0,0.5,0.4,1,1,1s1-0.4,1-1l0-14.1h0.8v5.2
		c0,1,1.4,1,1.4,0v-5.3c0-1.2-0.9-2.3-2.2-2.3l-4.6,0c-1.2,0-2.2,1-2.2,2.3v5.3c0,1,1.4,1,1.4,0v-5.2h0.8L22.2,25.4z"/>
</g>
</svg>
