<?xml version="1.0" encoding="utf-8"?>
<!-- Generator: Adobe Illustrator 23.0.1, SVG Export Plug-In . SVG Version: 6.00 Build 0)  -->
<svg version="1.1" xmlns="http://www.w3.org/2000/svg" xmlns:xlink="http://www.w3.org/1999/xlink" x="0px" y="0px" width="37px"
	 height="42px" viewBox="0 0 37 42" enable-background="new 0 0 37 42" xml:space="preserve">
<g id="Climbing" display="none">
	<g display="inline">
		<path fill="#FFFFFF" d="M18.5,1C8.85,1,1,8.1033,1,16.8334c0,9.5785,12.1667,20.4752,15.8999,23.5869
			c0.9273,0.773,2.2745,0.773,3.2018,0C23.8333,37.3067,36,26.4102,36,16.8334C36,8.1033,28.1499,1,18.5,1z"/>
		<g>
			<path fill="#69DD76" d="M26.5397,29.7786c-0.3857,0.1934-0.8321,0.2241-1.2412,0.0876
				c-0.4092-0.1365-0.7471-0.4307-0.9397-0.8157l-1.1766-2.3599h-5.4948c-0.7258,0-1.3639-0.4811-1.5636-1.1781l-1.6252-5.6882
				c-0.2248-0.7866,0.1708-1.6187,0.9231-1.9405l5.2884-2.2671l2.1779-2.9026c0.3485-0.4648,0.9179-0.7087,1.4945-0.6389
				c0.5765,0.07,1.0721,0.4422,1.3,0.9753c0.2283,0.5347,0.1542,1.1489-0.1944,1.6137l-2.4378,3.2636
				c-0.1649,0.2194-0.3829,0.3948-0.6337,0.5071l-3.1352,1.4089c-0.2017,0.0912-0.3577,0.2602-0.4323,0.4681
				c-0.0739,0.2082-0.0598,0.4372,0.0392,0.6355l1.0206,2.0445c0.138,0.2747,0.42,0.4486,0.7281,0.4486h3.5511
				c0.6153,0,1.1778,0.3478,1.4529,0.8987l1.6252,3.2504c0.1955,0.387,0.2287,0.8355,0.0925,1.2465
				C27.2224,29.2455,26.9276,29.5852,26.5397,29.7786z M11.1866,12.2263c0-1.7958,1.455-3.2504,3.2504-3.2504
				c1.7952,0,3.2504,1.4546,3.2504,3.2504s-1.4552,3.2504-3.2504,3.2504C12.6417,15.4767,11.1866,14.0221,11.1866,12.2263z
				 M26.1498,3.1463c-0.2514-0.1138-0.5438-0.0925-0.7762,0.0569c-0.2324,0.1497-0.3728,0.4063-0.3728,0.6827v5.74
				c0,0.6728-0.5457,1.2189-1.2189,1.2189c-0.6733,0-1.2189-0.5461-1.2189-1.2189V2.6232c-0.0002-0.39-0.2779-0.725-0.6616-0.7981
				C20.7802,1.6121,19.6414,1.5033,18.5,1.5C9.09,1.5,1.4354,8.4266,1.4354,16.9394c0,5.3762,3.9279,11.1684,7.9633,15.7012
				c0.2241,0.2519,0.5808,0.3395,0.8966,0.2209c0.3153-0.1201,0.5241-0.4226,0.5238-0.7606v-0.6355
				c0.0343-1.9112,0.5797-3.7784,1.5799-5.407c0.38-0.5557,1.1385-0.697,1.6943-0.3167c0.5557,0.3787,0.6977,1.1375,0.3177,1.6935
				c-0.7232,1.2238-1.1206,2.6115-1.1541,4.0319v4.8124c0,0.2225,0.0918,0.437,0.2535,0.5898
				c1.4027,1.3296,2.6249,2.3908,3.4342,3.0653c0.9041,0.7541,2.2179,0.7541,3.1218,0c3.6341-3.031,15.498-13.6567,15.498-22.9951
				C35.4131,10.8904,31.7283,5.4916,26.1498,3.1463z"/>
		</g>
		<path fill="#FFFFFF" d="M18.5,1C28.1499,1,36,8.1034,36,16.8334c0,9.5768-12.1667,20.4734-15.8984,23.5869
			C19.638,40.8068,19.0694,41,18.5008,41c-0.5686,0-1.1373-0.1932-1.6009-0.5798C13.1667,37.3086,1,26.4119,1,16.8334
			C1,8.1034,8.85,1,18.5,1 M18.5,0C8.299,0,0,7.5514,0,16.8334c0,10.0233,12.4453,21.1757,16.2596,24.355
			C16.8874,41.7118,17.6834,42,18.5007,42c0.8174,0,1.6133-0.2882,2.2412-0.8116C24.5562,38.006,37,26.8454,37,16.8334
			C37,7.5514,28.701,0,18.5,0L18.5,0z"/>
	</g>
</g>
<g id="Trailhead" display="none">
	<g display="inline">
		<g>
			<path fill="#FFFFFF" d="M18.5,1C8.85,1,1,8.1033,1,16.8334c0,9.5785,12.1667,20.4752,15.8999,23.5869
				c0.9273,0.773,2.2745,0.773,3.2018,0C23.8333,37.3067,36,26.4102,36,16.8334C36,8.1033,28.1499,1,18.5,1z"/>
			<path fill="#FFFFFF" d="M18.5,1C28.1499,1,36,8.1034,36,16.8334c0,9.5769-12.1667,20.4734-15.8984,23.5869
				C19.638,40.8068,19.0694,41,18.5008,41s-1.1373-0.1933-1.6009-0.5798C13.1667,37.3086,1,26.4119,1,16.8334
				C1,8.1034,8.85,1,18.5,1 M18.5,0C8.299,0,0,7.5514,0,16.8334c0,10.0233,12.4453,21.1757,16.2596,24.355
				C16.8874,41.7118,17.6834,42,18.5008,42c0.8174,0,1.6133-0.2882,2.2412-0.8116C24.5562,38.006,37,26.8454,37,16.8334
				C37,7.5514,28.701,0,18.5,0L18.5,0z"/>
		</g>
		<g>
			<path fill="#69DD76" d="M26.1798,18.2784c0.5987,0.6338,0.585,1.6286-0.031,2.2456c-1.2425,0.986-2.8207,1.4485-4.3987,1.2886
				c-0.643-0.002-1.2807-0.1198-1.8819-0.3476c-0.151-0.0562-0.3208-0.0179-0.4327,0.0975
				c-0.1124,0.1152-0.1458,0.286-0.0855,0.4355l2.2848,5.7119c0.333,0.8336-0.0731,1.7796-0.9069,2.1125
				c-0.8336,0.333-1.7796-0.0731-2.1125-0.9069L17.13,25.201c-0.0634-0.1581-0.2189-0.2597-0.3889-0.2545
				c-0.1701,0.005-0.3193,0.1157-0.3733,0.2771l-1.2009,3.6026c-0.2988,0.8385-1.2053,1.292-2.0555,1.0286
				c-0.409-0.1362-0.7473-0.4292-0.9402-0.8148c-0.1931-0.3855-0.2248-0.8317-0.0884-1.2407l4.0625-12.1876
				c0.1833-0.5515,0.6471-0.9635,1.2165-1.0803c0.5694-0.1168,1.158,0.079,1.5438,0.5137c0.3859,0.4345,0.5107,1.0421,0.3271,1.5935
				c-0.057,0.1713-0.0206,0.3596,0.096,0.4974c0.5582,0.8081,1.4438,1.3297,2.4213,1.4266
				c0.7577,0.0673,1.5195-0.0788,2.1986-0.4225C24.611,17.586,25.5907,17.6468,26.1798,18.2784z M25.8126,29.1252
				c0,0.6731-0.5458,1.2188-1.2188,1.2188c-0.6731,0-1.2188-0.5457-1.2188-1.2188v-4.875c0-0.6729,0.5457-1.2188,1.2188-1.2188
				c0.6729,0,1.2188,0.5458,1.2188,1.2188V29.1252z M11.5385,19.939c-0.2065,0.0005-0.4111-0.0382-0.603-0.1138l-2.3675-0.9474
				c-0.4552-0.1815-0.8042-0.559-0.9495-1.0272c-0.1456-0.4678-0.0718-0.9766,0.2004-1.3842l2.3204-3.4775
				c0.434-0.6515,1.2709-0.9006,1.9908-0.5931l1.5031,0.6498c0.8026,0.3443,1.1895,1.2618,0.8759,2.0768l-1.4627,3.783
				c-0.1563,0.4066-0.4696,0.7332-0.8692,0.9068C11.9749,19.898,11.7578,19.9411,11.5385,19.939z M20.125,5.5625
				c1.795,0,3.25,1.455,3.25,3.25c0,1.7951-1.455,3.25-3.25,3.25c-1.7952,0-3.25-1.4549-3.25-3.25
				C16.875,7.0176,18.3299,5.5625,20.125,5.5625z M24.5938,12.4688c0.6729,0,1.2188,0.5458,1.2188,1.2188v1.2188
				c0,0.6731-0.5458,1.2188-1.2188,1.2188c-0.6731,0-1.2188-0.5457-1.2188-1.2188v-1.2188
				C23.375,13.0147,23.9207,12.4688,24.5938,12.4688z M18.5,1.5C9.0912,1.5,1.4374,8.426,1.4374,16.9376
				c0,9.3391,11.8624,19.9633,15.5024,22.9972c0.9042,0.7536,2.2178,0.7536,3.1218,0c3.6384-3.0355,15.501-13.6598,15.501-22.9972
				C35.5626,8.426,27.9087,1.5,18.5,1.5z"/>
		</g>
	</g>
</g>
<g id="Campsite" display="none">
	<g display="inline">
		<g>
			<g>
				<path fill="#FFFFFF" d="M18.5,1C8.85,1,1,8.1033,1,16.8334c0,9.5785,12.1667,20.4752,15.8999,23.5869
					c0.9273,0.773,2.2745,0.773,3.2018,0C23.8333,37.3067,36,26.4102,36,16.8334C36,8.1033,28.1499,1,18.5,1z"/>
				<path fill="#FFFFFF" d="M18.5,1C28.1499,1,36,8.1034,36,16.8334c0,9.5769-12.1667,20.4734-15.8984,23.5869
					C19.638,40.8068,19.0694,41,18.5008,41s-1.1373-0.1933-1.6009-0.5798C13.1667,37.3086,1,26.4119,1,16.8334
					C1,8.1034,8.85,1,18.5,1 M18.5,0C8.299,0,0,7.5514,0,16.8334c0,10.0233,12.4453,21.1757,16.2596,24.355
					C16.8874,41.7118,17.6834,42,18.5008,42c0.8174,0,1.6133-0.2882,2.2412-0.8116C24.5562,38.006,37,26.8454,37,16.8334
					C37,7.5514,28.701,0,18.5,0L18.5,0z"/>
			</g>
		</g>
		<path fill="#69DD76" d="M27.4375,26.2813h-4.0739c-0.3075,0-0.5886-0.1735-0.7265-0.4485l-3.4123-6.825
			c-0.1529-0.2555-0.4288-0.4118-0.7265-0.4118s-0.5735,0.1563-0.7262,0.4118l-3.4127,6.825
			c-0.1378,0.275-0.4188,0.4485-0.7262,0.4485H9.5625c-0.4404-0.0081-0.8427-0.2507-1.0551-0.6367
			c-0.2124-0.3859-0.2023-0.8556,0.0265-1.2319l8.2436-12.9596c0.1688-0.2659,0.1688-0.6052,0-0.871l-1.7436-2.7446
			c-0.2629-0.3676-0.3005-0.8507-0.098-1.2547C15.1385,6.179,15.548,5.92,15.9998,5.9107c0.4519-0.0096,0.8718,0.2317,1.0912,0.6269
			l0.7233,1.1373c0.149,0.2347,0.4076,0.3767,0.6858,0.3767c0.278,0,0.5366-0.142,0.6858-0.3767l0.7231-1.1373
			c0.2194-0.3952,0.6394-0.6365,1.0912-0.6269C21.4518,5.92,21.8613,6.179,22.064,6.5828c0.2025,0.404,0.1649,0.8871-0.098,1.2547
			l-1.7435,2.7446c-0.169,0.2659-0.169,0.6052,0,0.871l8.2435,12.9596c0.2288,0.3764,0.2389,0.846,0.0265,1.2319
			C28.2801,26.0306,27.8777,26.2732,27.4375,26.2813z M18.5,1.5C9.0911,1.5,1.4375,8.4258,1.4375,16.9375
			c0,9.3405,11.8624,19.9633,15.5025,22.9972c0.904,0.7537,2.2175,0.7537,3.1216,0C23.7,36.8991,35.5625,26.275,35.5625,16.9375
			C35.5625,8.4258,27.9088,1.5,18.5,1.5z"/>
	</g>
</g>
<g id="High_Camp" display="none">
	<g display="inline">
		<g>
			<g>
				<path fill="#69DD76" d="M18.5,1C8.85,1,1,8.1033,1,16.8334c0,9.5785,12.1667,20.4752,15.8999,23.5869
					c0.9273,0.773,2.2745,0.773,3.2018,0C23.8333,37.3067,36,26.4102,36,16.8334C36,8.1033,28.1499,1,18.5,1z"/>
				<path fill="#69DD76" d="M18.5,1C28.1499,1,36,8.1034,36,16.8334c0,9.5769-12.1667,20.4734-15.8984,23.5869
					C19.638,40.8068,19.0694,41,18.5008,41s-1.1373-0.1933-1.6009-0.5798C13.1667,37.3086,1,26.4119,1,16.8334
					C1,8.1034,8.85,1,18.5,1 M18.5,0C8.299,0,0,7.5514,0,16.8334c0,10.0233,12.4453,21.1757,16.2596,24.355
					C16.8874,41.7118,17.6834,42,18.5008,42c0.8174,0,1.6133-0.2882,2.2412-0.8116C24.5562,38.006,37,26.8454,37,16.8334
					C37,7.5514,28.701,0,18.5,0L18.5,0z"/>
			</g>
		</g>
		<path fill="#FFFFFF" d="M27.4375,26.2813h-4.0739c-0.3075,0-0.5886-0.1735-0.7265-0.4485l-3.4123-6.825
			c-0.1529-0.2555-0.4288-0.4118-0.7265-0.4118s-0.5735,0.1563-0.7262,0.4118l-3.4127,6.825
			c-0.1378,0.275-0.4188,0.4485-0.7262,0.4485H9.5625c-0.4404-0.0081-0.8427-0.2507-1.0551-0.6367
			c-0.2124-0.3859-0.2023-0.8556,0.0265-1.2319l8.2436-12.9596c0.1688-0.2659,0.1688-0.6052,0-0.871l-1.7436-2.7446
			c-0.2629-0.3676-0.3005-0.8507-0.098-1.2547C15.1385,6.179,15.548,5.92,15.9998,5.9107c0.4519-0.0096,0.8718,0.2317,1.0912,0.6269
			l0.7233,1.1373c0.149,0.2347,0.4076,0.3767,0.6858,0.3767c0.278,0,0.5366-0.142,0.6858-0.3767l0.7231-1.1373
			c0.2194-0.3952,0.6394-0.6365,1.0912-0.6269C21.4518,5.92,21.8613,6.179,22.064,6.5828c0.2025,0.404,0.1649,0.8871-0.098,1.2547
			l-1.7435,2.7446c-0.169,0.2659-0.169,0.6052,0,0.871l8.2435,12.9596c0.2288,0.3764,0.2389,0.846,0.0265,1.2319
			C28.2801,26.0306,27.8777,26.2732,27.4375,26.2813z M18.5,1.5C9.0911,1.5,1.4375,8.4258,1.4375,16.9375
			c0,9.3405,11.8624,19.9633,15.5025,22.9972c0.904,0.7537,2.2175,0.7537,3.1216,0C23.7,36.8991,35.5625,26.275,35.5625,16.9375
			C35.5625,8.4258,27.9088,1.5,18.5,1.5z"/>
	</g>
</g>
<g id="Ranger_Station">
	<g>
		<g>
			<g>
				<g>
					<path fill="#FFFFFF" d="M18.5,1C8.85,1,1,8.1033,1,16.8334c0,9.5785,12.1667,20.4752,15.8999,23.5869
						c0.9273,0.773,2.2745,0.773,3.2018,0C23.8333,37.3067,36,26.4102,36,16.8334C36,8.1033,28.1499,1,18.5,1z"/>
					<path fill="#FFFFFF" d="M18.5,1C28.1499,1,36,8.1034,36,16.8334c0,9.5769-12.1667,20.4734-15.8984,23.5869
						C19.638,40.8068,19.0694,41,18.5008,41s-1.1373-0.1933-1.6009-0.5798C13.1667,37.3086,1,26.4119,1,16.8334
						C1,8.1034,8.85,1,18.5,1 M18.5,0C8.299,0,0,7.5514,0,16.8334c0,10.0233,12.4453,21.1757,16.2596,24.355
						C16.8874,41.7118,17.6834,42,18.5008,42c0.8174,0,1.6133-0.2882,2.2412-0.8116C24.5562,38.006,37,26.8454,37,16.8334
						C37,7.5514,28.701,0,18.5,0L18.5,0z"/>
				</g>
			</g>
		</g>
		<path fill="#69DD76" d="M29.8263,17.2171c-0.1173,0.3206-0.4227,0.5333-0.7638,0.533h-1.625
			c-0.4487,0-0.8125,0.3638-0.8125,0.8125v7.3125c0,0.4488-0.364,0.8125-0.8125,0.8125H21.75c-0.4487,0-0.8125-0.3637-0.8125-0.8125
			v-3.6563c0-1.3462-1.0913-2.4375-2.4375-2.4375c-1.3462,0-2.4375,1.0914-2.4375,2.4375v3.6563
			c0,0.4488-0.364,0.8125-0.8125,0.8125h-4.0625c-0.4487,0-0.8125-0.3637-0.8125-0.8125v-7.3125
			c0-0.4487-0.364-0.8125-0.8125-0.8125h-1.625c-0.3413,0.0003-0.6464-0.2127-0.7638-0.5332
			c-0.1173-0.3203-0.0218-0.6799,0.2389-0.9001l10.5626-8.9376c0.3031-0.2571,0.748-0.2571,1.0514,0l10.5626,8.9376
			C29.8492,16.5375,29.9438,16.897,29.8263,17.2171z M18.5,1.5C9.091,1.5,1.4374,8.426,1.4374,16.9376
			c0,9.3424,11.8624,19.9651,15.5026,22.9972c0.904,0.7536,2.2175,0.7536,3.1216,0c3.6384-3.0355,15.501-13.6598,15.501-22.9972
			C35.5626,8.426,27.9088,1.5,18.5,1.5z"/>
	</g>
</g>
</svg>
